<?xml version="1.0" encoding="UTF-8" standalone="no"?>
<!-- Created with Inkscape (http://www.inkscape.org/) -->

<svg
   xmlns:dc="http://purl.org/dc/elements/1.1/"
   xmlns:cc="http://creativecommons.org/ns#"
   xmlns:rdf="http://www.w3.org/1999/02/22-rdf-syntax-ns#"
   xmlns:svg="http://www.w3.org/2000/svg"
   xmlns="http://www.w3.org/2000/svg"
   xmlns:xlink="http://www.w3.org/1999/xlink"
   xmlns:sodipodi="http://sodipodi.sourceforge.net/DTD/sodipodi-0.dtd"
   xmlns:inkscape="http://www.inkscape.org/namespaces/inkscape"
   width="619"
   height="183"
   id="svg2"
   version="1.1"
   inkscape:version="0.48.5 r10040"
   sodipodi:docname="aquamark_logo.svg"
   inkscape:export-filename="/home/adfries/Documents/WSAA_AMIP/aquamark/doc/aquamark_logo.png"
   inkscape:export-xdpi="90"
   inkscape:export-ydpi="90">
  <defs
     id="defs4">
    <linearGradient
       id="linearGradient4025">
      <stop
         style="stop-color:#0e6f7e;stop-opacity:1;"
         offset="0"
         id="stop4027" />
      <stop
         style="stop-color:#1b80b6;stop-opacity:1;"
         offset="1"
         id="stop4029" />
    </linearGradient>
    <linearGradient
       id="linearGradient4003">
      <stop
         style="stop-color:#cfecfa;stop-opacity:1;"
         offset="0"
         id="stop4005" />
      <stop
         style="stop-color:#3877ae;stop-opacity:1;"
         offset="1"
         id="stop4007" />
    </linearGradient>
    <radialGradient
       inkscape:collect="always"
       xlink:href="#linearGradient4003"
       id="radialGradient4009"
       cx="-54.844479"
       cy="337.30054"
       fx="-54.844479"
       fy="337.30054"
       r="42.805244"
       gradientTransform="matrix(-0.22758124,1.5564734,-1.2107681,-0.17703361,470.66314,423.97863)"
       gradientUnits="userSpaceOnUse" />
    <radialGradient
       inkscape:collect="always"
       xlink:href="#linearGradient4025"
       id="radialGradient4031"
       cx="15.913074"
       cy="221.50392"
       fx="15.913074"
       fy="221.50392"
       r="6.8983383"
       gradientTransform="matrix(0.96357818,0.2674268,-0.43488734,1.5669632,187.6277,-7.6284)"
       gradientUnits="userSpaceOnUse" />
  </defs>
  <sodipodi:namedview
     id="base"
     pagecolor="#ffffff"
     bordercolor="#666666"
     borderopacity="1.0"
     inkscape:pageopacity="0.0"
     inkscape:pageshadow="2"
     inkscape:zoom="1"
     inkscape:cx="343.42168"
     inkscape:cy="23.517804"
     inkscape:document-units="px"
     inkscape:current-layer="layer1"
     showgrid="false"
     showguides="true"
     inkscape:guide-bbox="true"
     inkscape:window-width="1855"
     inkscape:window-height="1176"
     inkscape:window-x="65"
     inkscape:window-y="24"
     inkscape:window-maximized="1"
     fit-margin-top="0"
     fit-margin-left="0"
     fit-margin-right="0"
     fit-margin-bottom="0" />
  <metadata
     id="metadata7">
    <rdf:RDF>
      <cc:Work
         rdf:about="">
        <dc:format>image/svg+xml</dc:format>
        <dc:type
           rdf:resource="http://purl.org/dc/dcmitype/StillImage" />
        <dc:title></dc:title>
      </cc:Work>
    </rdf:RDF>
  </metadata>
  <g
     inkscape:label="Layer 1"
     inkscape:groupmode="layer"
     id="layer1"
     transform="translate(-33.5,-216.875)">
    <g
       id="logo-text-aqua">
      <path
         sodipodi:nodetypes="sssssscssssscsssscs"
         inkscape:connector-curvature="0"
         id="path3903"
         d="m 171.21428,391.00272 c 1.00521,-3.59736 3.92037,-12.9102 7.83891,-25.10714 8.43928,-26.26826 9.5085,-33.02446 4.65172,-37.3495 -5.24619,-4.67181 -14.02222,-4.66101 -18.55824,-0.85681 -4.17537,3.50174 -5.87147,9.02029 -4.27691,13.85185 1.37342,4.1615 6.89383,9.38626 10.82715,10.24728 1.50241,0.32889 4.50874,0.93624 5.15294,1.13143 -0.49726,1.41585 -0.64599,2.09105 -2.09676,6.98791 -1.10993,3.74637 -2.31854,7.13313 -2.68582,7.52613 -1.02781,1.09979 -9.90703,-0.37741 -15.31025,-4.01155 -9.45824,-6.36151 -13.3341,-17.4016 -13.17582,-26.92087 0.16866,-10.14345 2.72571,-16.52778 8.47491,-21.9809 5.82432,-5.52436 10.76007,-7.78228 20.45825,-7.77742 7.30838,0.004 13.46987,1.79994 17.93007,4.13958 6.38379,3.34867 8.69978,7.11101 11.70434,13.20934 1.81668,3.68729 2.26989,6.25241 2.23102,12.62728 -0.0434,7.12361 -0.85605,10.51963 -7.41776,31 -4.05294,12.65 -8.60216,24.63393 -9.12723,25.32143 -5.35344,0.0116 -17.56182,1.33062 -16.62052,-2.03804 z"
         style="fill:#0f238c;fill-opacity:1" />
      <path
         sodipodi:nodetypes="ssssssccssssscsscs"
         inkscape:connector-curvature="0"
         id="path3805"
         d="m 98.196431,366.85432 c -14.239004,-2.89331 -22.011556,-16.05714 -23.059772,-28.2679 -0.953227,-11.10423 3.841498,-22.06572 15.744445,-28.60157 8.521439,-4.67909 18.340306,-4.32992 27.133506,-1.235 9.96299,3.50664 17.68839,12.98265 17.66053,23.91335 -0.0108,4.25476 -0.92359,11.88774 -4.89997,26.80613 l -2.31824,8.31821 -17.61282,0 6.00448,-22.27276 c 1.49173,-5.53338 1.82607,-10.952 -0.3816,-15.22116 -1.55737,-3.01163 -5.09792,-6.07429 -12.15752,-6.07429 -8.552448,0 -14.368826,7.92034 -12.976904,15.33993 1.156869,6.16664 5.49186,10.96364 13.317014,12.92793 0.90595,0.22741 2.67424,0.45305 2.67424,0.45305 0,0 -0.46232,1.26604 -0.74864,3.02909 -0.33496,2.0625 -1.17998,5.59458 -1.87781,7.84907 l -1.2688,4.09907 z"
         style="fill:#0f238c;fill-opacity:1" />
      <path
         sodipodi:nodetypes="sssccssssccsss"
         inkscape:connector-curvature="0"
         id="path3803"
         d="m 235.07534,367.09105 c -9.82487,-1.81157 -17.34753,-9.07392 -20.54213,-19.8313 -2.28156,-7.68287 -1.94595,-11.78073 2.21459,-27.04042 l 3.59148,-13.58929 17.125,-0.0912 c 0,0.90774 -2.11071,8.71352 -4.03571,15.81841 -4.12741,15.23364 -4.3379,19.3229 -1.23189,23.93191 4.4558,6.61197 12.60147,6.10652 17.35525,-1.07692 1.41652,-2.14052 4.42799,-10.99345 7.17442,-21.09096 l 4.73319,-17.402 17.00474,0.008 c -0.53571,3.28647 -10.13577,38.59951 -11.94199,42.92239 -2.21493,5.30109 -10.02183,13.08447 -15.37996,15.33364 -5.99851,2.51799 -10.58239,3.11944 -16.06699,2.10815 z"
         style="fill:#0f238c;fill-opacity:1" />
      <use
         style="fill:#0f238c;fill-opacity:1"
         height="1052.3622"
         width="744.09448"
         transform="translate(205.74461,0)"
         id="use3907"
         xlink:href="#path3805"
         y="0"
         x="0" />
    </g>
    <g
       id="logo-text-mark">
      <path
         sodipodi:nodetypes="cssscssscccsssccsssscc"
         inkscape:connector-curvature="0"
         id="path3799"
         d="m 346.72086,367.84142 c -0.19194,-1.27641 -0.16836,-1.3489 5.62568,-22.413 6.49908,-23.62728 7.26013,-25.63394 11.59409,-30.57004 9.51811,-10.84054 26.77109,-12.80943 37.43535,-4.27207 l 2.9474,2.35956 3.82106,-2.76796 c 7.22041,-5.23044 20.13024,-6.35568 27.92161,-2.4337 5.69187,2.86514 11.72329,9.48707 13.87208,15.23023 2.7279,7.29094 2.50374,12.80122 -1.06762,26.24489 -1.68373,6.11619 -3.19467,12.57281 -5.10832,18.62209 l -18.92291,0 c 0,-0.30222 2.14551,-8.34598 4.65866,-17.66533 4.75972,-17.6501 4.85998,-19.64283 1.19011,-23.65489 -4.43944,-4.85339 -12.4193,-3.29294 -15.30725,2.99332 -1.19805,2.60781 -10.54152,36.55633 -10.54152,38.3269 l -19,0 c 0,-0.71035 2.08474,-9.58417 4.52361,-18.60294 4.07796,-15.07994 4.32539,-16.65848 3.07878,-19.64204 -2.64043,-6.31945 -10.77216,-7.95347 -15.30396,-3.07524 -1.3079,1.40789 -3.97315,9.20851 -7.41363,21.69813 l -5.4609,19.62209 z"
         style="fill:#1a80b6;fill-opacity:1" />
      <path
         sodipodi:nodetypes="cssccssscc"
         inkscape:connector-curvature="0"
         id="path3795"
         d="m 523.94012,367.8979 c 0.27691,-0.9625 3.16144,-12.17857 5.97357,-23.17857 2.81213,-11 6.05425,-21.87726 7.13185,-24.20605 7.2167,-15.59597 30.06441,-19.76928 41.91427,-11.06817 l -6.04084,16.69119 c -2.74114,-1.48589 -5.42381,-1.76445 -8.55076,-1.79956 -4.94215,-0.0555 -6.70148,0.75744 -9.30234,3.25007 -3.53625,3.3891 -3.58307,3.50155 -10.15095,24.38252 l -5.02197,15.89286 z"
         style="fill:#1a80b6;fill-opacity:1" />
      <path
         sodipodi:nodetypes="ccccc"
         inkscape:connector-curvature="0"
         id="path3793"
         d="m 569.80086,367.71933 c 9.04025,-29.257 16.03898,-53.09197 25.44053,-83.89286 l 17.00959,0 c -8.82636,29.37533 -16.19182,53.1868 -25.47278,83.89286 z"
         style="fill:#1a80b6;fill-opacity:1" />
      <path
         sodipodi:nodetypes="ssccccscsccs"
         inkscape:connector-curvature="0"
         id="path3791"
         d="m 610.48713,363.67738 c 1.00321,-5.90079 -1.51891,-12.33804 -6.15053,-16.40465 l -3.46214,-3.03981 4.43066,-15.06838 c 11.70962,-4.1064 16.08524,-10.7203 18.91226,-24.30235 6.49816,0 12.99632,0 19.49448,0 l -1.73174,7.69643 c -3.23928,14.39641 -11.17106,19.73494 -19.89385,25.58654 4.74214,5.22831 7.04303,10.08488 6.9673,18.35382 -0.0542,5.91922 -0.85479,9.7858 -2.13088,11.19075 l -17.11667,-0.006 z"
         style="fill:#1a80b6;fill-opacity:1" />
      <path
         style="fill:#1a80b6;fill-opacity:1"
         d="m 484.11961,366.85432 c -14.239,-2.89331 -22.01155,-16.05714 -23.05977,-28.2679 -0.95323,-11.10423 3.8415,-22.06572 15.74444,-28.60157 8.52144,-4.67909 18.34031,-4.32992 27.13351,-1.235 9.96299,3.50664 17.68839,12.98265 17.66053,23.91335 -0.0108,4.25476 -0.92359,11.88774 -4.89997,26.80613 l -2.31824,8.31821 -17.61282,0 6.00448,-22.27276 c 1.49173,-5.53338 1.82607,-10.952 -0.3816,-15.22116 -1.55737,-3.01163 -5.09792,-6.07429 -12.15752,-6.07429 -8.55245,0 -14.36883,7.92034 -12.9769,15.33993 1.15686,6.16664 5.49186,10.96364 13.31701,12.92793 0.90595,0.22741 2.67424,0.45305 2.67424,0.45305 0,0 -0.46232,1.26604 -0.74864,3.02909 -0.33496,2.0625 -1.17998,5.59458 -1.87781,7.84907 l -1.2688,4.09907 z"
         id="use3909"
         inkscape:connector-curvature="0"
         sodipodi:nodetypes="ssssssccssssscsscs" />
    </g>
    <g
       id="logo-droplet">
      <path
         d="m 105.75,331.28125 c -2.10369,0 -3.81029,0.38771 -5.03125,1.21875 -1.220964,0.83104 -1.968915,2.09517 -2.1875,3.96875 -0.435976,3.73694 2.17449,7.62997 5.59375,8.5625 1.72445,0.4703 3.28749,0.53418 4.5,-0.0625 1.21251,-0.59668 2.09321,-1.83982 2.40625,-4.125 0.31491,-2.29882 0.42769,-4.72275 -0.25,-6.53125 -0.67769,-1.8085 -2.12305,-3.03125 -5.03125,-3.03125 z"
         id="path3972"
         style="fill:url(#radialGradient4031);fill-opacity:1;stroke:#117ab2;stroke-width:1;stroke-miterlimit:4;stroke-opacity:1;stroke-dasharray:none"
         inkscape:original="M 105.75 331.1875 C 101.51999 331.1875 98.879442 332.68068 98.4375 336.46875 C 97.995558 340.25682 100.62135 344.17798 104.09375 345.125 C 107.56615 346.07202 110.49365 345.45257 111.125 340.84375 C 111.75635 336.23493 111.62152 331.1875 105.75 331.1875 z "
         inkscape:radius="-0.096163228"
         sodipodi:type="inkscape:offset" />
      <path
         sodipodi:nodetypes="csssscscsscc"
         inkscape:connector-curvature="0"
         id="path3969"
         d="m 115.875,232.84375 c -2.56736,3.4944 -6.63556,8.78596 -13.7481,15.2519 -7.790593,7.08236 -17.787559,10.91228 -26.540764,16.11802 -8.753205,5.20574 -16.436898,11.54655 -23.211136,21.22383 -6.434246,9.19158 -8.602053,22.80979 -5.59375,35.15625 2.857232,11.72645 11.936428,22.82125 24.65625,27.6875 -5.40269,-19.78206 2.688477,-37.84222 18.75,-44.625 15.05545,-6.35791 29.17629,-2.01894 38.21875,4.875 0.52137,-20.61648 -7.32354,-33.86552 -10.0874,-46.3585 -1.13124,-5.1133 -2.32804,-13.90862 -1.76396,-20.43116 0.36865,-4.26276 0.8961,-7.63079 1.25063,-9.73398 1.75023,-7.32014 -0.1068,-1.6558 -1.93052,0.83614 z"
         style="fill:url(#radialGradient4009);fill-opacity:1;stroke:none" />
      <path
         sodipodi:nodetypes="cccssccccccsccssssccccsssscsscc"
         inkscape:connector-curvature="0"
         id="path4021"
         d="m 127.125,307.84375 2.34375,1.8125 0.0625,-2.96875 c 0.53088,-20.9924 -7.06779,-32.71985 -9.75,-44.84375 -1.10107,-4.97695 -2.25717,-13.74298 -1.71875,-19.96875 0.36391,-4.20797 0.86732,-7.54018 1.21875,-9.625 0.41742,-1.74846 0.65353,-2.71799 0.71875,-3.40625 0.0168,-0.17692 0.0353,-0.30613 -0.0312,-0.65625 -0.0333,-0.17506 -0.0716,-0.47429 -0.4375,-0.84375 -0.36592,-0.36946 -1.17506,-0.50275 -1.5625,-0.375 l -5e-5,0 c -0.77488,0.2555 -0.73848,0.4842 -0.84375,0.625 -0.10527,0.1408 -0.17533,0.2781 -0.25,0.40625 -0.59735,1.02522 -1.48348,2.96407 -2.21875,3.96875 -2.5475,3.46737 -6.50946,8.64781 -13.53125,15.03125 -7.517155,6.83378 -17.405845,10.6405 -26.3125,15.9375 -8.881675,5.28214 -16.752954,11.76336 -23.65625,21.625 -6.742643,9.63214 -8.951346,23.62103 -5.84375,36.375 2.950669,12.10993 10.760973,23.07207 23.96875,28.125 l 2.8125,1.0625 L 71.25,347.25 67.78125,345.0625 C 57.148358,340.02166 50.809759,330.75558 48.25,320.25 c -2.90901,-11.93895 -0.782099,-25.18648 5.34375,-33.9375 6.64518,-9.49292 14.125265,-15.68316 22.75,-20.8125 8.599755,-5.11448 18.717219,-8.95031 26.78125,-16.28125 6.35899,-5.7809 10.12319,-10.44822 12.75,-13.9375 -0.2834,1.92522 -0.57259,3.56962 -0.8125,6.34375 -0.58974,6.81931 0.61984,15.62535 1.78125,20.875 2.70633,12.23294 9.40903,22.8948 9.625,41.3125 z"
         style="font-size:medium;font-style:normal;font-variant:normal;font-weight:normal;font-stretch:normal;text-indent:0;text-align:start;text-decoration:none;line-height:normal;letter-spacing:normal;word-spacing:normal;text-transform:none;direction:ltr;block-progression:tb;writing-mode:lr-tb;text-anchor:start;baseline-shift:baseline;color:#000000;fill:#2f7c9a;fill-opacity:1;fill-rule:nonzero;stroke:none;stroke-width:3;marker:none;visibility:visible;display:inline;overflow:visible;enable-background:accumulate;font-family:Sans;-inkscape-font-specification:Sans" />
      <path
         sodipodi:nodetypes="cssssc"
         inkscape:connector-curvature="0"
         id="path3965"
         d="m 105.43467,251.81629 c -12.626905,13.88959 -33.335032,15.78363 -45.961939,32.95623 -13.1138,17.83477 -11.616754,40.02729 -4.04061,46.84582 7.576144,6.81853 8.838835,-6.31345 7.828682,-12.87944 -1.010152,-6.566 2.399113,-27.27412 16.667517,-36.7443 14.268405,-9.47018 25.75889,-19.44544 25.50635,-30.17831 z"
         style="fill:#8bbfda;fill-opacity:1;stroke:none" />
    </g>
    <g
       id="logo-chart">
      <g
         transform="translate(0.63134533,1.2626907)"
         style="opacity:0.75308646;fill:#000000;fill-opacity:1"
         id="use3929">
        <path
           inkscape:connector-curvature="0"
           id="path3933"
           d="m 57.578695,243.86134 10.227795,0 -13.510791,52.02285 -10.354063,0 z"
           style="fill:#000000;fill-opacity:1;stroke:none" />
        <path
           sodipodi:nodetypes="ccccc"
           style="fill:#000000;fill-opacity:1;stroke:none"
           d="m 77.27667,229.3404 10.227795,0 -16.920056,66.54379 -10.354063,0 z"
           id="path3935"
           inkscape:connector-curvature="0" />
        <path
           sodipodi:nodetypes="ccccc"
           inkscape:connector-curvature="0"
           id="path3937"
           d="m 86.494311,254.72048 10.227795,0 -10.732871,41.16371 -10.354063,0 z"
           style="fill:#000000;fill-opacity:1;stroke:none" />
        <path
           sodipodi:nodetypes="ccccc"
           style="fill:#000000;fill-opacity:1;stroke:none"
           d="m 99.247483,265.83216 10.227797,0 -7.70241,30.05203 -10.354064,0 z"
           id="path3939"
           inkscape:connector-curvature="0" />
      </g>
      <g
         id="g3923">
        <path
           style="fill:#ffa600;fill-opacity:1;stroke:none"
           d="m 57.578695,243.86134 10.227795,0 -13.510791,52.02285 -10.354063,0 z"
           id="path3915"
           inkscape:connector-curvature="0" />
        <path
           inkscape:connector-curvature="0"
           id="path3917"
           d="m 77.27667,229.3404 10.227795,0 -16.920056,66.54379 -10.354063,0 z"
           style="fill:#ff3e00;fill-opacity:1;stroke:none"
           sodipodi:nodetypes="ccccc" />
        <path
           style="fill:#bc1183;fill-opacity:1;stroke:none"
           d="m 86.494311,254.72048 10.227795,0 -10.732871,41.16371 -10.354063,0 z"
           id="path3919"
           inkscape:connector-curvature="0"
           sodipodi:nodetypes="ccccc" />
        <path
           inkscape:connector-curvature="0"
           id="path3921"
           d="m 99.247483,265.83216 10.227797,0 -7.70241,30.05203 -10.354064,0 z"
           style="fill:#683797;fill-opacity:1;stroke:none"
           sodipodi:nodetypes="ccccc" />
      </g>
    </g>
    <g
       id="logo-text-subtitle">
      <use
         x="0"
         y="0"
         xlink:href="#path4143"
         id="use4214"
         transform="translate(63.25398,0)"
         width="744.09448"
         height="1052.3622" />
      <use
         height="1052.3622"
         width="744.09448"
         transform="translate(14.52321,0)"
         id="use4212"
         xlink:href="#path4143"
         y="0"
         x="0" />
      <use
         x="0"
         y="0"
         xlink:href="#path4047"
         id="use4204"
         transform="translate(362.40755,0)"
         width="744.09448"
         height="1052.3622" />
      <use
         height="1052.3622"
         width="744.09448"
         transform="translate(11.125,0)"
         id="use4194"
         xlink:href="#path4047"
         y="0"
         x="0" />
      <use
         x="0"
         y="0"
         xlink:href="#path4065"
         id="use4190"
         transform="translate(258.625,0)"
         width="744.09448"
         height="1052.3622" />
      <use
         height="1052.3622"
         width="744.09448"
         transform="translate(170.125,0)"
         id="use4188"
         xlink:href="#path4065"
         y="0"
         x="0" />
      <use
         height="1052.3622"
         width="744.09448"
         transform="translate(34.125,0)"
         id="use4184"
         xlink:href="#path4065"
         y="0"
         x="0" />
      <use
         height="1052.3622"
         width="744.09448"
         transform="translate(26.75,0)"
         id="use4182"
         xlink:href="#path4057"
         y="0"
         x="0" />
      <path
         d="m 222.08161,377.44278 0,1.82068 c -0.54412,-0.27903 -1.10916,-0.4883 -1.69511,-0.62782 -0.58598,-0.13951 -1.19287,-0.20927 -1.82068,-0.20928 -0.95569,1e-5 -1.67419,0.1465 -2.15551,0.43948 -0.47436,0.29299 -0.71154,0.73246 -0.71153,1.31842 -1e-5,0.44645 0.1709,0.79873 0.51272,1.05683 0.34181,0.25113 1.02892,0.4918 2.06134,0.72199 l 0.65921,0.14649 c 1.36724,0.29299 2.33687,0.70805 2.90889,1.24517 0.57898,0.53017 0.86848,1.27309 0.86849,2.22876 -1e-5,1.08823 -0.43251,1.94973 -1.2975,2.58453 -0.85802,0.63479 -2.04042,0.95219 -3.54718,0.95219 -0.62782,0 -1.28354,-0.0628 -1.96716,-0.18835 -0.67666,-0.11859 -1.39167,-0.29996 -2.14505,-0.54411 l 0,-1.98809 c 0.71152,0.36972 1.41259,0.64875 2.10319,0.83709 0.6906,0.18137 1.37422,0.27206 2.05088,0.27206 0.90684,0 1.60442,-0.15347 2.09273,-0.46041 0.4883,-0.3139 0.73245,-0.75338 0.73246,-1.31842 -1e-5,-0.52317 -0.17789,-0.92428 -0.53365,-1.20332 -0.3488,-0.27902 -1.11962,-0.54759 -2.31247,-0.8057 l -0.66967,-0.15695 c -1.19286,-0.25112 -2.05437,-0.63479 -2.58453,-1.151 -0.53016,-0.52318 -0.79523,-1.2382 -0.79523,-2.14505 0,-1.10217 0.39064,-1.95321 1.17193,-2.55314 0.78128,-0.5999 1.89043,-0.89986 3.32744,-0.89987 0.71152,1e-5 1.38119,0.0523 2.00902,0.15696 0.62781,0.10464 1.2068,0.2616 1.73697,0.47086"
         style="font-size:21.42956543px;font-style:normal;font-variant:normal;font-weight:normal;font-stretch:normal;text-indent:0;text-align:start;text-decoration:none;line-height:125%;letter-spacing:0px;word-spacing:0.61000001px;text-transform:none;direction:ltr;block-progression:tb;writing-mode:lr-tb;text-anchor:start;color:#000000;fill:#000000;fill-opacity:1;fill-rule:nonzero;stroke:none;stroke-width:1px;marker:none;visibility:visible;font-family:Bitstream Vera Sans;-inkscape-font-specification:Bitstream Vera Sans"
         id="path4047"
         inkscape:connector-curvature="0" />
      <path
         d="m 246.9851,382.4758 0,0.94173 -8.85225,0 c 0.0837,1.3254 0.48133,2.33688 1.19286,3.03446 0.7185,0.6906 1.71603,1.0359 2.9926,1.0359 0.73943,0 1.45444,-0.0907 2.14505,-0.27206 0.69757,-0.18136 1.38817,-0.45342 2.07181,-0.81616 l 0,1.82067 c -0.69062,0.29299 -1.39866,0.51621 -2.12413,0.66968 -0.72548,0.15346 -1.46143,0.2302 -2.20783,0.2302 -1.86951,0 -3.35186,-0.54411 -4.44705,-1.63233 -1.08822,-1.08822 -1.63233,-2.56011 -1.63233,-4.41566 0,-1.91833 0.51621,-3.43905 1.54862,-4.56216 1.03939,-1.13006 2.43803,-1.6951 4.19593,-1.69511 1.57651,1e-5 2.82169,0.50924 3.73552,1.52769 0.92079,1.0115 1.38119,2.38921 1.3812,4.13315 m -1.92531,-0.56504 c -0.014,-1.05333 -0.31043,-1.89391 -0.88941,-2.52174 -0.57202,-0.62781 -1.33238,-0.94172 -2.28108,-0.94173 -1.07427,10e-6 -1.93578,0.30346 -2.58452,0.91034 -0.64177,0.6069 -1.01149,1.46143 -1.10915,2.56359 l 6.86416,-0.0105"
         style="font-size:21.42956543px;font-style:normal;font-variant:normal;font-weight:normal;font-stretch:normal;text-indent:0;text-align:start;text-decoration:none;line-height:125%;letter-spacing:0px;word-spacing:0.61000001px;text-transform:none;direction:ltr;block-progression:tb;writing-mode:lr-tb;text-anchor:start;color:#000000;fill:#000000;fill-opacity:1;fill-rule:nonzero;stroke:none;stroke-width:1px;marker:none;visibility:visible;font-family:Bitstream Vera Sans;-inkscape-font-specification:Bitstream Vera Sans"
         id="path4051"
         inkscape:connector-curvature="0" />
      <path
         d="m 252.04952,373.77004 0,3.32744 3.96572,0 0,1.4963 -3.96572,0 0,6.3619 c -1e-5,0.95569 0.12904,1.56955 0.38715,1.84161 0.26508,0.27205 0.79872,0.40808 1.60094,0.40808 l 1.97763,0 0,1.6114 -1.97763,0 c -1.48584,0 -2.51128,-0.27554 -3.07631,-0.82663 -0.56504,-0.55806 -0.84756,-1.56954 -0.84756,-3.03446 l 0,-6.3619 -1.41259,0 0,-1.4963 1.41259,0 0,-3.32744 1.93578,0"
         style="font-size:21.42956543px;font-style:normal;font-variant:normal;font-weight:normal;font-stretch:normal;text-indent:0;text-align:start;text-decoration:none;line-height:125%;letter-spacing:0px;word-spacing:0.61000001px;text-transform:none;direction:ltr;block-progression:tb;writing-mode:lr-tb;text-anchor:start;color:#000000;fill:#000000;fill-opacity:1;fill-rule:nonzero;stroke:none;stroke-width:1px;marker:none;visibility:visible;font-family:Bitstream Vera Sans;-inkscape-font-specification:Bitstream Vera Sans"
         id="path4053"
         inkscape:connector-curvature="0" />
      <path
         d="m 266.07392,373.19454 3.14956,0 3.98665,10.63107 4.00758,-10.63107 3.14956,0 0,15.62223 -2.06134,0 0,-13.71785 -4.0285,10.71478 -2.12413,0 -4.0285,-10.71478 0,13.71785 -2.05088,0 0,-15.62223"
         style="font-size:21.42956543px;font-style:normal;font-variant:normal;font-weight:normal;font-stretch:normal;text-indent:0;text-align:start;text-decoration:none;line-height:125%;letter-spacing:0px;word-spacing:0.61000001px;text-transform:none;direction:ltr;block-progression:tb;writing-mode:lr-tb;text-anchor:start;color:#000000;fill:#000000;fill-opacity:1;fill-rule:nonzero;stroke:none;stroke-width:1px;marker:none;visibility:visible;font-family:Bitstream Vera Sans;-inkscape-font-specification:Bitstream Vera Sans"
         id="path4055"
         inkscape:connector-curvature="0" />
      <path
         d="m 289.81595,382.92573 c -1.5556,1e-5 -2.63336,0.17789 -3.23327,0.53365 -0.59992,0.35577 -0.89987,0.96266 -0.89987,1.82068 0,0.68363 0.22322,1.22773 0.66967,1.63233 0.45342,0.39762 1.06729,0.59643 1.84161,0.59643 1.06728,0 1.92181,-0.37669 2.56359,-1.13008 0.64874,-0.76035 0.97311,-1.76835 0.97312,-3.024 l 0,-0.42901 -1.91485,0 m 3.84016,-0.79523 0,6.68627 -1.92531,0 0,-1.77882 c -0.43948,0.71153 -0.98708,1.2382 -1.64279,1.58001 -0.65573,0.33484 -1.45794,0.50226 -2.40664,0.50226 -1.19984,0 -2.15552,-0.33484 -2.86704,-1.00451 -0.70456,-0.67665 -1.05684,-1.58001 -1.05683,-2.71009 -10e-6,-1.31841 0.43947,-2.31246 1.31842,-2.98214 0.88592,-0.66967 2.20434,-1.0045 3.95526,-1.00451 l 2.69962,0 0,-0.18835 c -10e-6,-0.88591 -0.29299,-1.56954 -0.87895,-2.05087 -0.57899,-0.4883 -1.39516,-0.73245 -2.44849,-0.73246 -0.66968,10e-6 -1.32191,0.0802 -1.9567,0.24066 -0.6348,0.16046 -1.24518,0.40112 -1.83114,0.722 l 0,-1.77882 c 0.70455,-0.27205 1.38817,-0.47435 2.05087,-0.6069 0.6627,-0.1395 1.30795,-0.20926 1.93578,-0.20927 1.6951,1e-5 2.9612,0.43949 3.79831,1.31842 0.83708,0.87896 1.25562,2.21133 1.25563,3.99712"
         style="font-size:21.42956543px;font-style:normal;font-variant:normal;font-weight:normal;font-stretch:normal;text-indent:0;text-align:start;text-decoration:none;line-height:125%;letter-spacing:0px;word-spacing:0.61000001px;text-transform:none;direction:ltr;block-progression:tb;writing-mode:lr-tb;text-anchor:start;color:#000000;fill:#000000;fill-opacity:1;fill-rule:nonzero;stroke:none;stroke-width:1px;marker:none;visibility:visible;font-family:Bitstream Vera Sans;-inkscape-font-specification:Bitstream Vera Sans"
         id="path4057"
         inkscape:connector-curvature="0" />
      <path
         d="m 307.37396,381.74334 0,7.07343 -1.92531,0 0,-7.01065 c -10e-6,-1.10914 -0.21626,-1.93925 -0.64875,-2.49035 -0.4325,-0.55107 -1.08125,-0.82661 -1.94623,-0.82663 -1.0394,2e-5 -1.85905,0.33136 -2.45896,0.99405 -0.59992,0.66271 -0.89988,1.56607 -0.89988,2.71009 l 0,6.62349 -1.93577,0 0,-11.71929 1.93577,0 0,1.82067 c 0.4604,-0.70454 1.00102,-1.23121 1.62187,-1.58001 0.62781,-0.34877 1.3498,-0.52317 2.16597,-0.52318 1.34632,1e-5 2.36478,0.41856 3.05539,1.25564 0.69059,0.83013 1.03589,2.05437 1.0359,3.67274"
         style="font-size:21.42956543px;font-style:normal;font-variant:normal;font-weight:normal;font-stretch:normal;text-indent:0;text-align:start;text-decoration:none;line-height:125%;letter-spacing:0px;word-spacing:0.61000001px;text-transform:none;direction:ltr;block-progression:tb;writing-mode:lr-tb;text-anchor:start;color:#000000;fill:#000000;fill-opacity:1;fill-rule:nonzero;stroke:none;stroke-width:1px;marker:none;visibility:visible;font-family:Bitstream Vera Sans;-inkscape-font-specification:Bitstream Vera Sans"
         id="path4059"
         inkscape:connector-curvature="0" />
      <path
         d="m 332.08912,382.8211 c -10e-6,-1.39515 -0.2895,-2.47639 -0.86848,-3.24373 -0.57202,-0.76733 -1.37772,-1.151 -2.4171,-1.15101 -1.03242,1e-5 -1.83812,0.38368 -2.41711,1.15101 -0.57201,0.76734 -0.85802,1.84858 -0.85802,3.24373 0,1.38818 0.28601,2.46594 0.85802,3.23327 0.57899,0.76733 1.38469,1.151 2.41711,1.151 1.03938,0 1.84508,-0.38367 2.4171,-1.151 0.57898,-0.76733 0.86847,-1.84509 0.86848,-3.23327 m 1.92532,4.54122 c -10e-6,1.99507 -0.44298,3.47742 -1.32889,4.44706 -0.88593,0.9766 -2.24272,1.46491 -4.07036,1.46491 -0.67665,0 -1.31494,-0.0523 -1.91485,-0.15696 -0.59992,-0.0977 -1.18239,-0.25113 -1.74743,-0.4604 l 0,-1.87299 c 0.56504,0.30693 1.1231,0.53364 1.67419,0.68014 0.55108,0.14649 1.11263,0.21973 1.68465,0.21973 1.2626,0 2.20782,-0.33135 2.83565,-0.99404 0.62781,-0.65573 0.94171,-1.64977 0.94172,-2.98214 l 0,-0.9522 c -0.39762,0.69061 -0.90685,1.20681 -1.52769,1.54862 -0.62085,0.34182 -1.36377,0.51272 -2.22876,0.51272 -1.43701,0 -2.59499,-0.54759 -3.47393,-1.64279 -0.87895,-1.09519 -1.31842,-2.54615 -1.31842,-4.35288 0,-1.81369 0.43947,-3.26814 1.31842,-4.36335 0.87894,-1.09518 2.03692,-1.64278 3.47393,-1.64279 0.86499,1e-5 1.60791,0.17092 2.22876,0.51272 0.62084,0.34182 1.13007,0.85803 1.52769,1.54862 l 0,-1.77882 1.92532,0 0,10.26484"
         style="font-size:21.42956543px;font-style:normal;font-variant:normal;font-weight:normal;font-stretch:normal;text-indent:0;text-align:start;text-decoration:none;line-height:125%;letter-spacing:0px;word-spacing:0.61000001px;text-transform:none;direction:ltr;block-progression:tb;writing-mode:lr-tb;text-anchor:start;color:#000000;fill:#000000;fill-opacity:1;fill-rule:nonzero;stroke:none;stroke-width:1px;marker:none;visibility:visible;font-family:Bitstream Vera Sans;-inkscape-font-specification:Bitstream Vera Sans"
         id="path4063"
         inkscape:connector-curvature="0" />
      <path
         d="m 348.00434,382.4758 0,0.94173 -8.85225,0 c 0.0837,1.3254 0.48133,2.33688 1.19286,3.03446 0.7185,0.6906 1.71603,1.0359 2.9926,1.0359 0.73943,0 1.45444,-0.0907 2.14505,-0.27206 0.69757,-0.18136 1.38817,-0.45342 2.07181,-0.81616 l 0,1.82067 c -0.69061,0.29299 -1.39865,0.51621 -2.12412,0.66968 -0.72549,0.15346 -1.46144,0.2302 -2.20784,0.2302 -1.86951,0 -3.35186,-0.54411 -4.44705,-1.63233 -1.08822,-1.08822 -1.63233,-2.56011 -1.63233,-4.41566 0,-1.91833 0.51621,-3.43905 1.54862,-4.56216 1.03939,-1.13006 2.43803,-1.6951 4.19593,-1.69511 1.57651,1e-5 2.82169,0.50924 3.73552,1.52769 0.92079,1.0115 1.38119,2.38921 1.3812,4.13315 m -1.92531,-0.56504 c -0.014,-1.05333 -0.31043,-1.89391 -0.88941,-2.52174 -0.57202,-0.62781 -1.33238,-0.94172 -2.28107,-0.94173 -1.07428,10e-6 -1.93579,0.30346 -2.58453,0.91034 -0.64177,0.6069 -1.01149,1.46143 -1.10915,2.56359 l 6.86416,-0.0105"
         style="font-size:21.42956543px;font-style:normal;font-variant:normal;font-weight:normal;font-stretch:normal;text-indent:0;text-align:start;text-decoration:none;line-height:125%;letter-spacing:0px;word-spacing:0.61000001px;text-transform:none;direction:ltr;block-progression:tb;writing-mode:lr-tb;text-anchor:start;color:#000000;fill:#000000;fill-opacity:1;fill-rule:nonzero;stroke:none;stroke-width:1px;marker:none;visibility:visible;font-family:Bitstream Vera Sans;-inkscape-font-specification:Bitstream Vera Sans"
         id="path4065"
         inkscape:connector-curvature="0" />
      <path
         d="m 360.28867,379.34716 c 0.48132,-0.86498 1.05682,-1.50326 1.72651,-1.91484 0.66966,-0.41156 1.45792,-0.61735 2.36478,-0.61736 1.22075,1e-5 2.16248,0.42902 2.82519,1.28703 0.66268,0.85105 0.99403,2.06484 0.99405,3.64135 l 0,7.07343 -1.93578,0 0,-7.01065 c -2e-5,-1.12309 -0.19882,-1.95669 -0.59643,-2.50081 -0.39763,-0.5441 -1.00452,-0.81615 -1.82067,-0.81617 -0.99755,2e-5 -1.78581,0.33136 -2.36479,0.99405 -0.579,0.66271 -0.86849,1.56607 -0.86848,2.71009 l 0,6.62349 -1.93578,0 0,-7.01065 c -1e-5,-1.13006 -0.19882,-1.96367 -0.59643,-2.50081 -0.39762,-0.5441 -1.01149,-0.81615 -1.8416,-0.81617 -0.98359,2e-5 -1.76487,0.33485 -2.34386,1.00452 -0.57899,0.6627 -0.86849,1.56258 -0.86848,2.69962 l 0,6.62349 -1.93578,0 0,-11.71929 1.93578,0 0,1.82067 c 0.43947,-0.71849 0.96614,-1.24865 1.58001,-1.59047 0.61386,-0.3418 1.34283,-0.51271 2.1869,-0.51272 0.85104,1e-5 1.57303,0.21626 2.16598,0.64875 0.59991,0.43251 1.04287,1.06032 1.32888,1.88345"
         style="font-size:21.42956543px;font-style:normal;font-variant:normal;font-weight:normal;font-stretch:normal;text-indent:0;text-align:start;text-decoration:none;line-height:125%;letter-spacing:0px;word-spacing:0.61000001px;text-transform:none;direction:ltr;block-progression:tb;writing-mode:lr-tb;text-anchor:start;color:#000000;fill:#000000;fill-opacity:1;fill-rule:nonzero;stroke:none;stroke-width:1px;marker:none;visibility:visible;font-family:Bitstream Vera Sans;-inkscape-font-specification:Bitstream Vera Sans"
         id="path4067"
         inkscape:connector-curvature="0" />
      <use
         height="1052.3622"
         width="744.09448"
         transform="translate(87.601725,0)"
         id="use4226"
         xlink:href="#path4059"
         y="0"
         x="0" />
      <use
         height="1052.3622"
         width="744.09448"
         transform="translate(148.69164,0)"
         id="use4220"
         xlink:href="#path4053"
         y="0"
         x="0" />
      <use
         height="1052.3622"
         width="744.09448"
         transform="translate(277.9744,0)"
         id="use4216"
         xlink:href="#path4143"
         y="0"
         x="0" />
      <use
         x="0"
         y="0"
         xlink:href="#path4047"
         id="use4196"
         transform="translate(214.72042,0)"
         width="744.09448"
         height="1052.3622" />
      <use
         height="1052.3622"
         width="744.09448"
         transform="translate(225.8956,0)"
         id="use4198"
         xlink:href="#path4047"
         y="0"
         x="0" />
      <use
         x="0"
         y="0"
         xlink:href="#path4065"
         id="use4186"
         transform="translate(113.75,0)"
         width="744.09448"
         height="1052.3622" />
      <use
         x="0"
         y="0"
         xlink:href="#path4047"
         id="use4200"
         transform="translate(250.25499,0)"
         width="744.09448"
         height="1052.3622" />
      <use
         height="1052.3622"
         width="744.09448"
         transform="translate(261.43016,0)"
         id="use4202"
         xlink:href="#path4047"
         y="0"
         x="0" />
      <use
         height="1052.3622"
         width="744.09448"
         transform="translate(136.05156,0)"
         id="use4206"
         xlink:href="#path4067"
         y="0"
         x="0" />
      <use
         x="0"
         y="0"
         xlink:href="#path4059"
         id="use4228"
         transform="translate(223.65327,0)"
         width="744.09448"
         height="1052.3622" />
      <use
         x="0"
         y="0"
         xlink:href="#path4053"
         id="use4222"
         transform="translate(284.74319,0)"
         width="744.09448"
         height="1052.3622" />
      <use
         height="1052.3622"
         width="744.09448"
         transform="matrix(1.0476942,0,0,1,421.25591,0)"
         id="use4210"
         xlink:href="#path4141"
         y="0"
         x="0" />
      <path
         d="m 567.63247,393.41634 -1.87017,-0.0373 c 0.73511,-1.3326 1.37594,-3.33341 1.9327,-4.7506 l -4.74004,-11.53095 2.04042,0 3.66228,9.16616 3.66228,-9.16616 2.04041,0"
         style="font-size:21.42956543px;font-style:normal;font-variant:normal;font-weight:normal;font-stretch:normal;text-indent:0;text-align:start;text-decoration:none;line-height:125%;letter-spacing:0px;word-spacing:0.61000001px;text-transform:none;direction:ltr;block-progression:tb;writing-mode:lr-tb;text-anchor:start;color:#000000;fill:#000000;fill-opacity:1;fill-rule:nonzero;stroke:none;stroke-width:1px;marker:none;visibility:visible;font-family:Bitstream Vera Sans;-inkscape-font-specification:Bitstream Vera Sans"
         id="path4097"
         inkscape:connector-curvature="0"
         sodipodi:nodetypes="cccccccc" />
      <use
         height="1052.3622"
         width="744.09448"
         transform="translate(338.04815,0)"
         id="use4224"
         xlink:href="#path4053"
         y="0"
         x="0" />
      <use
         x="0"
         y="0"
         xlink:href="#path4067"
         id="use4208"
         transform="translate(258.6259,0)"
         width="744.09448"
         height="1052.3622" />
      <path
         d="m 102.15347,373.19457 2.03485,0 3.13207,13.20514 3.1221,-13.20514 2.26426,0 3.13207,13.20514 3.12209,-13.20514 2.04482,0 -3.74052,15.62225 -2.53359,0 -3.14204,-13.5609 -3.17197,13.5609 -2.53358,0 -3.73056,-15.62225"
         style="font-size:20.92292595px;font-style:normal;font-variant:normal;font-weight:normal;font-stretch:normal;text-indent:0;text-align:start;text-decoration:none;line-height:125%;letter-spacing:0px;word-spacing:0.59557837px;text-transform:none;direction:ltr;block-progression:tb;writing-mode:lr-tb;text-anchor:start;color:#000000;fill:#000000;fill-opacity:1;fill-rule:nonzero;stroke:none;stroke-width:1px;marker:none;visibility:visible;font-family:Bitstream Vera Sans;-inkscape-font-specification:Bitstream Vera Sans"
         id="path4139"
         inkscape:connector-curvature="0" />
      <path
         d="m 132.59638,373.7073 0,2.06134 c -0.76474,-0.38366 -1.48625,-0.66966 -2.16452,-0.85802 -0.67829,-0.18834 -1.33329,-0.2825 -1.96503,-0.28252 -1.09722,2e-5 -1.94508,0.22323 -2.54355,0.66967 -0.59184,0.44646 -0.88776,1.08126 -0.88776,1.90439 0,0.69061 0.19617,1.21379 0.58851,1.56955 0.39899,0.3488 1.15042,0.63132 2.25429,0.84756 l 1.21693,0.26158 c 1.50285,0.29998 2.61005,0.83013 3.32159,1.59049 0.71817,0.75338 1.07725,1.76487 1.07726,3.03445 -1e-5,1.51375 -0.48544,2.66125 -1.45631,3.44255 -0.96423,0.78128 -2.38064,1.17192 -4.24923,1.17192 -0.70489,0 -1.45632,-0.0837 -2.25429,-0.25112 -0.79134,-0.16742 -1.61259,-0.41507 -2.46377,-0.74293 l 0,-2.17643 c 0.81793,0.48133 1.61924,0.84406 2.40391,1.08821 0.78468,0.24416 1.55606,0.36623 2.31415,0.36623 1.15041,0 2.03816,-0.23718 2.66325,-0.71152 0.62507,-0.47435 0.93761,-1.151 0.93762,-2.02995 -1e-5,-0.76733 -0.2261,-1.36725 -0.67828,-1.79975 -0.44554,-0.4325 -1.18035,-0.75687 -2.20441,-0.97312 l -1.22689,-0.25113 c -1.50287,-0.31391 -2.59011,-0.80569 -3.26175,-1.47538 -0.67163,-0.66966 -1.00745,-1.60093 -1.00745,-2.79379 0,-1.38119 0.46216,-2.46941 1.38649,-3.26466 0.93098,-0.79522 2.21107,-1.19284 3.84028,-1.19286 0.69822,2e-5 1.40975,0.0663 2.13459,0.19881 0.72482,0.13256 1.46628,0.33136 2.22437,0.59643"
         style="font-size:20.92292595px;font-style:normal;font-variant:normal;font-weight:normal;font-stretch:normal;text-indent:0;text-align:start;text-decoration:none;line-height:125%;letter-spacing:0px;word-spacing:0.59557837px;text-transform:none;direction:ltr;block-progression:tb;writing-mode:lr-tb;text-anchor:start;color:#000000;fill:#000000;fill-opacity:1;fill-rule:nonzero;stroke:none;stroke-width:1px;marker:none;visibility:visible;font-family:Bitstream Vera Sans;-inkscape-font-specification:Bitstream Vera Sans"
         id="path4141"
         inkscape:connector-curvature="0" />
      <path
         d="m 142.01253,375.27684 -2.73308,7.7745 5.47614,0 -2.74306,-7.7745 m -1.13712,-2.08227 2.28421,0 5.67563,15.62225 -2.0947,0 -1.35656,-4.00758 -6.713,0 -1.35656,4.00758 -2.12462,0 5.6856,-15.62225"
         style="font-size:20.92292595px;font-style:normal;font-variant:normal;font-weight:normal;font-stretch:normal;text-indent:0;text-align:start;text-decoration:none;line-height:125%;letter-spacing:0px;word-spacing:0.59557837px;text-transform:none;direction:ltr;block-progression:tb;writing-mode:lr-tb;text-anchor:start;color:#000000;fill:#000000;fill-opacity:1;fill-rule:nonzero;stroke:none;stroke-width:1px;marker:none;visibility:visible;font-family:Bitstream Vera Sans;-inkscape-font-specification:Bitstream Vera Sans"
         id="path4143"
         inkscape:connector-curvature="0" />
    </g>
  </g>
</svg>
