<svg
   xmlns:dc="http://purl.org/dc/elements/1.1/"
   xmlns:cc="http://creativecommons.org/ns#"
   xmlns:rdf="http://www.w3.org/1999/02/22-rdf-syntax-ns#"
   xmlns:svg="http://www.w3.org/2000/svg"
   xmlns="http://www.w3.org/2000/svg"
   version="1.1"
   width="18"
   height="18"
   id="svg4183"
   class="clock-progress">
  <defs />
  <metadata id="metadata4">
    <rdf:RDF>
      <cc:Work
         rdf:about="">
        <dc:format>image/svg+xml</dc:format>
        <dc:type
           rdf:resource="http://purl.org/dc/dcmitype/StillImage" />
        <dc:title></dc:title>
      </cc:Work>
    </rdf:RDF>
  </metadata>
  <g transform="translate(9,9)"
     id="g4877">
    <path
       d="M -7.5,0 A 7.5,7.5 0 0 0 0,7.5 7.5,7.5 0 0 0 7.5,0 7.5,7.5 0 0 0 0,-7.5 7.5,7.5 0 0 0 -7.5,0 z"
       class="clock-face" />
    <g transform="scale(7.5,7.5)">
      <path
         d="m 0,-1 a 1,1 0 0 1 0.72896863,0.31545289 L 0,0 z"
         class="clock-fill" />
    </g>
    <path
       d="M -7.5,0 A 7.5,7.5 0 0 0 0,7.5 7.5,7.5 0 0 0 7.5,0 7.5,7.5 0 0 0 0,-7.5 7.5,7.5 0 0 0 -7.5,0 z"
       class="clock-edge" />
  </g>
</svg>
