<?xml version="1.0" encoding="UTF-8" standalone="no"?>
<svg xmlns:rdf="http://www.w3.org/1999/02/22-rdf-syntax-ns#" xmlns="http://www.w3.org/2000/svg" class="clock-progress" height="18" width="18" version="1.1" xmlns:cc="http://creativecommons.org/ns#" xmlns:dc="http://purl.org/dc/elements/1.1/">
<g transform="translate(9,9)">
<path d="m-7.5 0a7.5 7.5 0 0 0 7.5 7.5 7.5 7.5 0 0 0 7.5 -7.5 7.5 7.5 0 0 0 -7.5 -7.5 7.5 7.5 0 0 0 -7.5 7.5z" class="clock-face"/>
<g transform="scale(7.5)">
<path d="m0-1a1 1 0 0 1 0.72897 0.31545l-0.72897 0.68455z" class="clock-fill"/>
</g>
<path d="m-7.5 0a7.5 7.5 0 0 0 7.5 7.5 7.5 7.5 0 0 0 7.5 -7.5 7.5 7.5 0 0 0 -7.5 -7.5 7.5 7.5 0 0 0 -7.5 7.5z" class="clock-edge"/>
</g>
</svg>
