<?xml version="1.0" encoding="UTF-8" standalone="no"?>
<!-- Created with Inkscape (http://www.inkscape.org/) -->

<svg
   xmlns:dc="http://purl.org/dc/elements/1.1/"
   xmlns:cc="http://creativecommons.org/ns#"
   xmlns:rdf="http://www.w3.org/1999/02/22-rdf-syntax-ns#"
   xmlns:svg="http://www.w3.org/2000/svg"
   xmlns="http://www.w3.org/2000/svg"
   xmlns:xlink="http://www.w3.org/1999/xlink"
   xmlns:sodipodi="http://sodipodi.sourceforge.net/DTD/sodipodi-0.dtd"
   xmlns:inkscape="http://www.inkscape.org/namespaces/inkscape"
   viewBox="0 0 192 192"
   preserveAspectRatio="xMinYMin meet"
   width="192"
   height="192"
   id="svg2"
   version="1.1"
   inkscape:version="0.48.5 r10040"
   sodipodi:docname="logo-monogram.svg"
   inkscape:export-filename="/home/adfries/Documents/WSAA_AMIP/aquamark/src/app/client/images/logo-monogram-fav.png"
   inkscape:export-xdpi="30"
   inkscape:export-ydpi="30">
  <defs
     id="defs4">
    <linearGradient
       id="linearGradient4003">
      <stop
         style="stop-color:#cfecfa;stop-opacity:1;"
         offset="0"
         id="stop4005" />
      <stop
         style="stop-color:#3877ae;stop-opacity:1;"
         offset="1"
         id="stop4007" />
    </linearGradient>
    <radialGradient
       inkscape:collect="always"
       xlink:href="#linearGradient4003"
       id="radialGradient4009"
       cx="-54.844479"
       cy="337.30054"
       fx="-54.844479"
       fy="337.30054"
       r="42.805244"
       gradientTransform="matrix(-0.22758124,1.5564734,-1.2107681,-0.17703361,470.66314,423.97863)"
       gradientUnits="userSpaceOnUse" />
    <radialGradient
       inkscape:collect="always"
       xlink:href="#linearGradient4003"
       id="radialGradient3019"
       gradientUnits="userSpaceOnUse"
       gradientTransform="matrix(-0.22758124,1.5564734,-1.2107681,-0.17703361,470.66314,423.97863)"
       cx="-54.844479"
       cy="337.30054"
       fx="-54.844479"
       fy="337.30054"
       r="42.805244" />
    <radialGradient
       inkscape:collect="always"
       xlink:href="#linearGradient4003"
       id="radialGradient3024"
       gradientUnits="userSpaceOnUse"
       gradientTransform="matrix(-0.32194484,2.2018449,-1.7127974,-0.25043829,672.69258,495.69639)"
       cx="-54.844479"
       cy="337.30054"
       fx="-54.844479"
       fy="337.30054"
       r="42.805244" />
  </defs>
  <sodipodi:namedview
     id="base"
     pagecolor="#ffffff"
     bordercolor="#666666"
     borderopacity="1.0"
     inkscape:pageopacity="0.0"
     inkscape:pageshadow="2"
     inkscape:zoom="1"
     inkscape:cx="81.354924"
     inkscape:cy="89.123417"
     inkscape:document-units="px"
     inkscape:current-layer="logo-droplet"
     showgrid="false"
     showguides="true"
     inkscape:guide-bbox="true"
     inkscape:window-width="3840"
     inkscape:window-height="2047"
     inkscape:window-x="0"
     inkscape:window-y="55"
     inkscape:window-maximized="1"
     fit-margin-top="0"
     fit-margin-left="0"
     fit-margin-right="0"
     fit-margin-bottom="0" />
  <metadata
     id="metadata7">
    <rdf:RDF>
      <cc:Work
         rdf:about="">
        <dc:format>image/svg+xml</dc:format>
        <dc:type
           rdf:resource="http://purl.org/dc/dcmitype/StillImage" />
        <dc:title />
      </cc:Work>
    </rdf:RDF>
  </metadata>
  <g
     inkscape:label="Layer 1"
     inkscape:groupmode="layer"
     id="layer1"
     transform="translate(-33.5,-207.875)">
    <g
       id="g3058"
       style="fill:#ffffff;fill-opacity:1;stroke:#626262;stroke-width:8;stroke-miterlimit:4;stroke-opacity:1;stroke-dasharray:none"
       transform="translate(0,-1.2928932)">
      <path
         sodipodi:nodetypes="csssssssscc"
         inkscape:connector-curvature="0"
         id="path3015"
         d="m 170.39518,225.25347 c -3.61847,4.92506 -9.35226,12.38307 -19.37678,21.49627 -10.98018,9.98198 -25.07006,15.37993 -37.40696,22.71698 -12.33691,7.33705 -23.166421,16.27388 -32.714136,29.91319 -9.068526,12.95476 -12.114113,32.1461 -7.883918,49.54976 3.673474,15.11323 17.291747,29.60124 31.587844,36.02451 38.8679,17.46343 79.92249,-6.27631 83.4583,-46.68707 2.33043,-26.6345 -10.32452,-54.0691 -14.21995,-71.6769 -1.59438,-7.20676 -3.28117,-19.60302 -2.48615,-28.79599 0.51958,-6.008 1.26297,-10.75495 1.76265,-13.71922 2.4668,-10.31712 -0.15052,-2.33371 -2.7209,1.17847 z"
         style="color:#000000;fill:#000000;fill-opacity:1;stroke:#ffffff;stroke-width:17.93355942000000169;stroke-linejoin:round;stroke-miterlimit:4;stroke-opacity:1;stroke-dasharray:none;marker:none;visibility:visible;display:inline;overflow:visible;enable-background:accumulate" />
      <g
         transform="matrix(1.4094154,0,0,1.4094154,7.07917,-102.9201)"
         id="g3038"
         style="fill:#ffffff;fill-opacity:1;stroke:#ffffff;stroke-width:7.06895113000000030;stroke-linejoin:miter;stroke-miterlimit:4;stroke-opacity:1;stroke-dasharray:none">
        <path
           inkscape:connector-curvature="0"
           id="path3040"
           d="m 57.578695,243.86134 10.227795,0 -13.510791,52.02285 -10.354063,0 z"
           style="fill:#ffffff;fill-opacity:1;stroke:#ffffff;stroke-width:7.06895113000000030;stroke-linejoin:miter;stroke-miterlimit:4;stroke-opacity:1;stroke-dasharray:none" />
        <path
           sodipodi:nodetypes="ccccc"
           style="fill:#ffffff;fill-opacity:1;stroke:#ffffff;stroke-width:7.06895113000000030;stroke-linejoin:miter;stroke-miterlimit:4;stroke-opacity:1;stroke-dasharray:none"
           d="m 77.27667,229.3404 10.227795,0 -16.920056,66.54379 -10.354063,0 z"
           id="path3042"
           inkscape:connector-curvature="0" />
        <path
           sodipodi:nodetypes="ccccc"
           inkscape:connector-curvature="0"
           id="path3044"
           d="m 86.494311,254.72048 10.227795,0 -10.732871,41.16371 -10.354063,0 z"
           style="fill:#ffffff;fill-opacity:1;stroke:#ffffff;stroke-width:7.06895113000000030;stroke-linejoin:miter;stroke-miterlimit:4;stroke-opacity:1;stroke-dasharray:none" />
        <path
           sodipodi:nodetypes="ccccc"
           style="fill:#ffffff;fill-opacity:1;stroke:#ffffff;stroke-width:7.06895113000000030;stroke-linejoin:miter;stroke-miterlimit:4;stroke-opacity:1;stroke-dasharray:none"
           d="m 99.247483,265.83216 10.227797,0 -7.70241,30.05203 -10.354064,0 z"
           id="path3046"
           inkscape:connector-curvature="0" />
      </g>
    </g>
    <g
       id="logo-droplet"
       transform="matrix(1.4094154,0,0,1.4094154,7.07917,-104.213)">
      <path
         sodipodi:nodetypes="csssssssscc"
         inkscape:connector-curvature="0"
         id="path3969"
         d="m 115.875,232.84375 c -2.56736,3.4944 -6.63556,8.78596 -13.7481,15.2519 -7.790593,7.08236 -17.787559,10.91228 -26.540764,16.11802 -8.753205,5.20574 -16.436898,11.54655 -23.211136,21.22383 -6.434246,9.19158 -8.602053,22.80979 -5.59375,35.15625 2.857232,11.72645 12.45931,23.49089 25.530988,27.31261 30.841112,9.01691 58.462072,-15.45585 56.094012,-39.37511 -1.86891,-18.87746 -7.32354,-33.86552 -10.0874,-46.3585 -1.13124,-5.1133 -2.32804,-13.90862 -1.76396,-20.43116 0.36865,-4.26276 0.8961,-7.63079 1.25063,-9.73398 1.75023,-7.32014 -0.1068,-1.6558 -1.93052,0.83614 z"
         style="fill:url(#radialGradient4009);fill-opacity:1;stroke:none" />
      <path
         style="color:#000000;fill:none;stroke:#2f7c9a;stroke-width:3.00006294;stroke-linejoin:round;stroke-miterlimit:4;stroke-opacity:1;stroke-dasharray:none;marker:none;visibility:visible;display:inline;overflow:visible;enable-background:accumulate"
         d="m 115.875,232.84375 c -2.56736,3.4944 -6.63556,8.78596 -13.7481,15.2519 -7.790593,7.08236 -17.787559,10.91228 -26.540764,16.11802 -8.753205,5.20574 -16.436898,11.54655 -23.211136,21.22383 -6.434246,9.19158 -9.279768,22.19792 -5.342899,35.15625 3.58884,11.81278 14.357536,23.9683 28.03024,27.81154 30.376609,8.53852 54.339239,-16.33431 53.594759,-40.62659 -0.58109,-18.96085 -7.57439,-33.11297 -10.33825,-45.60595 -1.13124,-5.1133 -2.32804,-13.90862 -1.76396,-20.43116 0.36865,-4.26276 0.8961,-7.63079 1.25063,-9.73398 1.75023,-7.32014 -0.1068,-1.6558 -1.93052,0.83614 z"
         id="path3256"
         inkscape:connector-curvature="0"
         sodipodi:nodetypes="csssssssscc" />
      <path
         sodipodi:nodetypes="cssssc"
         inkscape:connector-curvature="0"
         id="path3965"
         d="m 105.43467,251.81629 c -12.626905,13.88959 -33.335032,15.78363 -45.961939,32.95623 -13.1138,17.83477 -9.986222,39.27474 -2.410078,46.09327 7.576144,6.81853 7.208303,-5.5609 6.19815,-12.12689 -1.010152,-6.566 2.399113,-27.27412 16.667517,-36.7443 14.268405,-9.47018 25.75889,-19.44544 25.50635,-30.17831 z"
         style="fill:#8bbfda;fill-opacity:1;stroke:none" />
    </g>
    <g
       id="logo-chart"
       transform="matrix(1.4094154,0,0,1.4094154,7.07917,-104.213)">
      <g
         transform="translate(0.63134533,1.2626907)"
         style="opacity:0.75308646;fill:#000000;fill-opacity:1"
         id="use3929">
        <path
           inkscape:connector-curvature="0"
           id="path3933"
           d="m 57.578695,243.86134 10.227795,0 -13.510791,52.02285 -10.354063,0 z"
           style="fill:#000000;fill-opacity:1;stroke:none" />
        <path
           sodipodi:nodetypes="ccccc"
           style="fill:#000000;fill-opacity:1;stroke:none"
           d="m 77.27667,229.3404 10.227795,0 -16.920056,66.54379 -10.354063,0 z"
           id="path3935"
           inkscape:connector-curvature="0" />
        <path
           sodipodi:nodetypes="ccccc"
           inkscape:connector-curvature="0"
           id="path3937"
           d="m 86.494311,254.72048 10.227795,0 -10.732871,41.16371 -10.354063,0 z"
           style="fill:#000000;fill-opacity:1;stroke:none" />
        <path
           sodipodi:nodetypes="ccccc"
           style="fill:#000000;fill-opacity:1;stroke:none"
           d="m 99.247483,265.83216 10.227797,0 -7.70241,30.05203 -10.354064,0 z"
           id="path3939"
           inkscape:connector-curvature="0" />
      </g>
      <g
         id="g3923">
        <path
           style="fill:#ffa600;fill-opacity:1;stroke:none"
           d="m 57.578695,243.86134 10.227795,0 -13.510791,52.02285 -10.354063,0 z"
           id="path3915"
           inkscape:connector-curvature="0" />
        <path
           inkscape:connector-curvature="0"
           id="path3917"
           d="m 77.27667,229.3404 10.227795,0 -16.920056,66.54379 -10.354063,0 z"
           style="fill:#ff3e00;fill-opacity:1;stroke:none"
           sodipodi:nodetypes="ccccc" />
        <path
           style="fill:#bc1183;fill-opacity:1;stroke:none"
           d="m 86.494311,254.72048 10.227795,0 -10.732871,41.16371 -10.354063,0 z"
           id="path3919"
           inkscape:connector-curvature="0"
           sodipodi:nodetypes="ccccc" />
        <path
           inkscape:connector-curvature="0"
           id="path3921"
           d="m 99.247483,265.83216 10.227797,0 -7.70241,30.05203 -10.354064,0 z"
           style="fill:#683797;fill-opacity:1;stroke:none"
           sodipodi:nodetypes="ccccc" />
      </g>
    </g>
  </g>
</svg>
