<?xml version="1.0" encoding="UTF-8" standalone="no"?>
<!-- Created with Inkscape (http://www.inkscape.org/) -->

<svg
   xmlns:dc="http://purl.org/dc/elements/1.1/"
   xmlns:cc="http://creativecommons.org/ns#"
   xmlns:rdf="http://www.w3.org/1999/02/22-rdf-syntax-ns#"
   xmlns:svg="http://www.w3.org/2000/svg"
   xmlns="http://www.w3.org/2000/svg"
   xmlns:sodipodi="http://sodipodi.sourceforge.net/DTD/sodipodi-0.dtd"
   xmlns:inkscape="http://www.inkscape.org/namespaces/inkscape"
   width="512"
   height="128"
   id="svg3085"
   version="1.1"
   inkscape:version="0.48.5 r10040"
   sodipodi:docname="logo.svg">
  <defs
     id="defs3087" />
  <sodipodi:namedview
     id="base"
     pagecolor="#c2c2c2"
     bordercolor="#cbcbcb"
     borderopacity="1"
     inkscape:pageopacity="0.42352941"
     inkscape:pageshadow="2"
     inkscape:zoom="1"
     inkscape:cx="270.37675"
     inkscape:cy="47.367815"
     inkscape:document-units="px"
     inkscape:current-layer="layer1"
     showgrid="false"
     inkscape:window-width="1920"
     inkscape:window-height="1014"
     inkscape:window-x="0"
     inkscape:window-y="27"
     inkscape:window-maximized="1"
     borderlayer="true"
     inkscape:showpageshadow="false">
    <inkscape:grid
       type="xygrid"
       id="grid3110"
       empspacing="5"
       visible="true"
       enabled="true"
       snapvisiblegridlinesonly="true" />
  </sodipodi:namedview>
  <metadata
     id="metadata3090">
    <rdf:RDF>
      <cc:Work
         rdf:about="">
        <dc:format>image/svg+xml</dc:format>
        <dc:type
           rdf:resource="http://purl.org/dc/dcmitype/StillImage" />
        <dc:title />
      </cc:Work>
    </rdf:RDF>
  </metadata>
  <g
     inkscape:label="Layer 1"
     inkscape:groupmode="layer"
     id="layer1"
     transform="translate(0,-924.36218)">
    <g
       transform="matrix(2.7750684,0,0,2.7750684,-388.81432,-489.84656)"
       id="g7320">
      <rect
         rx="3.6160662"
         style="fill:#ffffff;fill-opacity:1;stroke:none"
         id="rect6751"
         width="38"
         height="40.954769"
         x="257.52795"
         y="520.05658"
         ry="3.6160662"
         transform="matrix(1,0,-0.16990692,0.98546012,0,0)" />
      <rect
         style="fill:#ffa600;fill-opacity:1;fill-rule:evenodd;stroke:none"
         id="rect7261"
         width="5.964447"
         height="4.3880248"
         x="263.45316"
         y="552.23541"
         transform="matrix(1,0,-0.16990692,0.98546012,0,0)" />
      <rect
         y="533.22064"
         x="273.59271"
         height="23.402775"
         width="5.9147034"
         id="rect7263"
         style="fill:#ff3e00;fill-opacity:1;fill-rule:evenodd;stroke:none"
         transform="matrix(1,0,-0.16990692,0.98546012,0,0)" />
      <rect
         style="fill:#bc1183;fill-opacity:1;fill-rule:evenodd;stroke:none"
         id="rect7265"
         width="5.8650208"
         height="14.626736"
         x="283.73224"
         y="541.9967"
         transform="matrix(1,0,-0.16990692,0.98546012,0,0)" />
      <rect
         transform="matrix(1,0,-0.16990692,0.98546012,0,0)"
         y="524.44458"
         x="263.45316"
         height="23.402788"
         width="5.964447"
         id="rect3791"
         style="fill:#ffa600;fill-opacity:1;fill-rule:evenodd;stroke:none" />
    </g>
    <g
       transform="matrix(1,0,-0.17016552,1,0,0)"
       style="font-size:62.89432143999999880px;font-style:normal;font-weight:normal;line-height:125%;letter-spacing:0px;word-spacing:0px;fill:#000000;fill-opacity:1;stroke:none;font-family:Sans;-inkscape-font-specification:Droid Sans;opacity:0.8"
       id="text4014">
      <path
         d="m 413.60327,1013.3056 c -2.85123,0 -5.32507,-0.4403 -7.42153,-1.3208 -2.09649,-0.8805 -3.8156,-2.0755 -5.15734,-3.585 -1.34175,-1.5513 -2.34806,-3.3753 -3.01892,-5.4718 -0.62895,-2.0964 -0.94342,-4.36062 -0.94342,-6.79255 l 0,-27.35903 6.10075,0 0,26.66719 c -10e-6,4.36069 0.96437,7.52639 2.89314,9.49709 1.92874,1.9706 4.44451,2.956 7.54732,2.956 1.55137,0 2.95601,-0.2306 4.21392,-0.6919 1.29979,-0.5031 2.41092,-1.2578 3.3334,-2.2641 0.92242,-1.0063 1.63522,-2.2852 2.1384,-3.8366 0.50313,-1.59331 0.7547,-3.48014 0.75473,-5.66049 l 0,-26.66719 6.10075,0 0,27.35903 c -3e-5,2.43193 -0.33547,4.69615 -1.00631,6.79255 -0.62897,2.0965 -1.63528,3.9205 -3.01892,5.4718 -1.34178,1.5095 -3.06089,2.7045 -5.15734,3.585 -2.05457,0.8805 -4.50745,1.3208 -7.35863,1.3208"
         style="font-variant:normal;font-stretch:normal;fill:#000000;font-family:Ubuntu;-inkscape-font-specification:Ubuntu"
         id="path3794" />
      <path
         d="m 462.94386,996.07255 c -3e-5,-3.81557 -0.94344,-6.75063 -2.83024,-8.8052 -1.88686,-2.05452 -4.40263,-3.0818 -7.54732,-3.08182 -1.76106,2e-5 -3.14473,0.0629 -4.15103,0.18868 -0.96439,0.12582 -1.74008,0.27257 -2.32709,0.44026 l 0,20.62933 c 0.71279,0.587 1.74007,1.1531 3.08183,1.6982 1.34173,0.545 2.80926,0.8176 4.4026,0.8176 1.67716,0 3.10276,-0.2935 4.27681,-0.8805 1.21593,-0.629 2.20128,-1.4676 2.95603,-2.5158 0.75471,-1.0902 1.29979,-2.3481 1.63526,-3.7737 0.33541,-1.46749 0.50312,-3.03985 0.50315,-4.71705 m 6.10075,0 c -3e-5,2.47386 -0.33547,4.75905 -1.00631,6.85545 -0.62897,2.0965 -1.57239,3.8995 -2.83024,5.4089 -1.25792,1.5095 -2.80931,2.6835 -4.65418,3.5221 -1.803,0.8386 -3.87851,1.2579 -6.22654,1.2579 -1.88685,0 -3.56403,-0.2516 -5.03155,-0.7547 -1.42561,-0.5032 -2.49482,-0.9854 -3.20761,-1.4466 l 0,13.082 -5.84917,0 0,-43.33416 c 1.38367,-0.3354 3.10278,-0.6918 5.15734,-1.0692 2.09646,-0.41926 4.50741,-0.62891 7.23284,-0.62894 2.51576,3e-5 4.77995,0.39836 6.79259,1.19499 2.01259,0.79669 3.7317,1.92879 5.15733,3.39629 1.42558,1.46756 2.51575,3.27053 3.27051,5.40892 0.79663,2.09649 1.19496,4.46551 1.19499,7.10705"
         style="font-variant:normal;font-stretch:normal;fill:#000000;font-family:Ubuntu;-inkscape-font-specification:Ubuntu"
         id="path3796" />
      <path
         d="m 477.33684,980.60055 c 1.34174,-0.3354 3.10277,-0.6918 5.28312,-1.0692 2.22225,-0.37734 4.77995,-0.56602 7.67311,-0.56605 2.09645,3e-5 3.85749,0.29354 5.28312,0.88052 1.42558,0.54511 2.62057,1.36274 3.58498,2.45288 0.29348,-0.20962 0.7547,-0.50313 1.38367,-0.88052 0.62891,-0.37734 1.40461,-0.73374 2.32709,-1.06921 0.92242,-0.37733 1.94969,-0.6918 3.08182,-0.94341 1.13207,-0.29348 2.34802,-0.44023 3.64787,-0.44026 2.51574,3e-5 4.57028,0.3774 6.16365,1.1321 1.59327,0.71283 2.83019,1.7401 3.71076,3.08182 0.9224,1.34177 1.53038,2.93509 1.82394,4.77997 0.33538,1.84492 0.5031,3.85753 0.50315,6.03785 l 0,18.36516 -5.84917,0 0,-17.10727 c -4e-5,-1.92874 -0.10487,-3.58496 -0.31447,-4.96865 -0.16776,-1.38366 -0.52416,-2.53672 -1.06921,-3.45919 -0.50319,-0.92243 -1.21599,-1.5933 -2.1384,-2.01262 -0.88056,-0.4612 -2.03362,-0.69181 -3.45919,-0.69184 -1.97072,3e-5 -3.60597,0.27257 -4.90576,0.81763 -1.25791,0.50318 -2.11747,0.9644 -2.57866,1.38367 0.3354,1.0902 0.58698,2.28519 0.75473,3.58498 0.16769,1.29984 0.25154,2.66255 0.25157,4.08813 l 0,18.36516 -5.84917,0 0,-17.10727 c -2e-5,-1.92874 -0.10485,-3.58496 -0.31447,-4.96865 -0.20967,-1.38366 -0.58704,-2.53672 -1.1321,-3.45919 -0.50317,-0.92243 -1.21598,-1.5933 -2.1384,-2.01262 -0.88054,-0.4612 -2.01264,-0.69181 -3.3963,-0.69184 -0.58703,3e-5 -1.21597,0.021 -1.88683,0.0629 -0.67088,0.042 -1.32079,0.10485 -1.94972,0.18868 -0.58703,0.042 -1.13211,0.10485 -1.63525,0.18868 -0.50317,0.0839 -0.83861,0.14678 -1.00631,0.18869 l 0,27.61062 -5.84917,0 0,-31.76165"
         style="font-variant:normal;font-stretch:normal;fill:#000000;font-family:Ubuntu;-inkscape-font-specification:Ubuntu"
         id="path3798" />
      <path
         d="m 542.57888,1008.1483 c 1.38366,0 2.59962,-0.021 3.64787,-0.063 1.09015,-0.084 1.99163,-0.2097 2.70446,-0.3774 l 0,-9.74862 c -0.41932,-0.20963 -1.11116,-0.37735 -2.07551,-0.50315 -0.92247,-0.1677 -2.05457,-0.25156 -3.3963,-0.25158 -0.88053,2e-5 -1.82395,0.0629 -2.83024,0.18868 -0.96439,0.12581 -1.86588,0.39835 -2.70446,0.81763 -0.79667,0.37738 -1.46754,0.92246 -2.01262,1.63525 -0.54509,0.67089 -0.81763,1.57239 -0.81762,2.70449 -10e-6,2.0965 0.67086,3.564 2.01262,4.4026 1.34173,0.7966 3.16566,1.195 5.4718,1.195 m -0.50315,-29.30879 c 2.34803,3e-5 4.31872,0.3145 5.91206,0.94341 1.63523,0.58705 2.93505,1.4466 3.89945,2.57867 1.00628,1.0902 1.71909,2.41098 2.13841,3.96234 0.41927,1.50949 0.62891,3.18667 0.62894,5.03155 l 0,20.44062 c -0.50318,0.084 -1.21598,0.2097 -2.13841,0.3774 -0.88054,0.1258 -1.88685,0.2516 -3.01892,0.3774 -1.13212,0.1258 -2.36904,0.2306 -3.71077,0.3144 -1.29983,0.1258 -2.59965,0.1887 -3.89945,0.1887 -1.84491,0 -3.54305,-0.1887 -5.09444,-0.566 -1.5514,-0.3774 -2.89314,-0.9644 -4.02523,-1.7611 -1.13211,-0.8386 -2.01262,-1.9287 -2.64156,-3.2705 -0.62895,-1.3417 -0.94342,-2.956 -0.94342,-4.8428 0,-1.803 0.3564,-3.35439 1.06921,-4.65422 0.75472,-1.2998 1.76103,-2.34803 3.01892,-3.14471 1.25788,-0.79665 2.72541,-1.38366 4.40261,-1.76104 1.67716,-0.37735 3.4382,-0.56603 5.28312,-0.56605 0.58699,2e-5 1.19497,0.042 1.82393,0.12579 0.62893,0.0419 1.21594,0.1258 1.76104,0.25157 0.587,0.0839 1.09015,0.16774 1.50947,0.25158 0.41927,0.0839 0.71278,0.14677 0.88052,0.18868 l 0,-1.63525 c -2e-5,-0.96436 -0.10485,-1.90777 -0.31447,-2.83024 -0.20967,-0.96436 -0.58704,-1.80295 -1.1321,-2.51578 -0.54511,-0.7547 -1.29984,-1.34171 -2.2642,-1.76104 -0.92246,-0.46119 -2.13842,-0.69181 -3.64787,-0.69183 -1.92877,2e-5 -3.62691,0.14678 -5.09444,0.44026 -1.42561,0.2516 -2.49481,0.52414 -3.20761,0.81762 l -0.69184,-4.84286 c 0.75473,-0.33541 2.01262,-0.64988 3.77366,-0.94342 1.76103,-0.3354 3.66883,-0.50312 5.72339,-0.50315"
         style="font-variant:normal;font-stretch:normal;fill:#000000;font-family:Ubuntu;-inkscape-font-specification:Ubuntu"
         id="path3800" />
      <path
         d="m 576.38359,978.9653 c 0.50314,3e-5 1.06919,0.042 1.69815,0.12579 0.67085,0.042 1.32076,0.12582 1.94972,0.25157 0.62892,0.0839 1.19497,0.18872 1.69815,0.31448 0.54506,0.0839 0.94339,0.16775 1.19499,0.25157 l -1.00631,5.09444 c -0.46124,-0.16769 -1.23694,-0.35637 -2.32709,-0.56605 -1.04826,-0.25155 -2.41096,-0.37733 -4.08813,-0.37736 -1.09018,3e-5 -2.18035,0.12581 -3.2705,0.37736 -1.04825,0.20968 -1.74009,0.35643 -2.07552,0.44026 l 0,27.48484 -5.84917,0 0,-31.32139 c 1.38367,-0.50312 3.10278,-0.96435 5.15734,-1.38367 2.05453,-0.4612 4.36066,-0.69181 6.91837,-0.69184"
         style="font-variant:normal;font-stretch:normal;fill:#000000;font-family:Ubuntu;-inkscape-font-specification:Ubuntu"
         id="path3802" />
      <path
         d="m 600.45443,994.37441 c 1.25787,0.96439 2.57865,2.15938 3.96235,3.58497 1.42558,1.42562 2.80925,2.97702 4.15102,4.65422 1.38365,1.6352 2.68346,3.3124 3.89945,5.0315 1.21593,1.6772 2.2432,3.2495 3.08182,4.7171 l -6.85548,0 c -0.88055,-1.4676 -1.90782,-2.956 -3.08182,-4.4655 -1.13212,-1.5514 -2.32711,-3.0189 -3.58498,-4.4026 -1.2579,-1.4256 -2.53675,-2.7254 -3.83655,-3.89946 -1.29983,-1.17402 -2.53675,-2.15936 -3.71077,-2.95604 l 0,15.7236 -5.84917,0 0,-47.7997 5.84917,-1.00631 0,29.81191 c 1.0063,-1.00629 2.11743,-2.11742 3.3334,-3.3334 1.21594,-1.21593 2.41093,-2.45286 3.58498,-3.71077 1.17401,-1.25786 2.28514,-2.45285 3.3334,-3.58497 1.04821,-1.174 1.9497,-2.20127 2.70445,-3.08182 l 6.85548,0 c -0.96441,1.04827 -2.01264,2.20133 -3.14471,3.45918 -1.13213,1.25792 -2.30615,2.53677 -3.52208,3.83656 -1.21598,1.25791 -2.4529,2.53676 -3.71077,3.83655 -1.21598,1.25791 -2.36904,2.4529 -3.45919,3.58498"
         style="font-variant:normal;font-stretch:normal;fill:#000000;font-family:Ubuntu;-inkscape-font-specification:Ubuntu"
         id="path3804" />
    </g>
  </g>
</svg>
