<?xml version="1.0" encoding="UTF-8" standalone="no"?>
<svg xmlns:rdf="http://www.w3.org/1999/02/22-rdf-syntax-ns#" xmlns="http://www.w3.org/2000/svg" height="192" width="192" version="1.1" preserveAspectRatio="xMinYMin meet" xmlns:cc="http://creativecommons.org/ns#" xmlns:xlink="http://www.w3.org/1999/xlink" viewBox="0 0 192 192" xmlns:dc="http://purl.org/dc/elements/1.1/">
<defs>
<radialGradient id="monogram-radialGradient4009" gradientUnits="userSpaceOnUse" cy="337.3" cx="-54.844" gradientTransform="matrix(-.22758 1.5565 -1.2108 -.17703 470.66 423.98)" r="42.805">
<stop stop-color="#cfecfa" offset="0"/>
<stop stop-color="#3877ae" offset="1"/>
</radialGradient>
</defs>
<g transform="translate(-33.5 -207.88)">
<g transform="translate(0 -1.2929)" stroke="#fff">
<path stroke-linejoin="round" style="color:#000000" d="m170.4 225.25c-3.6185 4.9251-9.3523 12.383-19.377 21.496-10.98 9.982-25.07 15.38-37.407 22.717s-23.166 16.274-32.714 29.913c-9.0685 12.955-12.114 32.146-7.8839 49.55 3.6735 15.113 17.292 29.601 31.588 36.025 38.868 17.463 79.922-6.2763 83.458-46.687 2.3304-26.634-10.325-54.069-14.22-71.677-1.5944-7.2068-3.2812-19.603-2.4862-28.796 0.51958-6.008 1.263-10.755 1.7626-13.719 2.4668-10.317-0.15052-2.3337-2.7209 1.1785z" stroke-width="17.934"/>
<g transform="matrix(1.4094 0 0 1.4094 7.0792 -102.92)" stroke-width="7.069" fill="#fff">
<path d="m57.579 243.86h10.228l-13.511 52.023h-10.354z"/>
<path d="m77.277 229.34h10.228l-16.92 66.544h-10.354z"/>
<path d="m86.494 254.72h10.228l-10.733 41.164h-10.354z"/>
<path d="m99.247 265.83h10.228l-7.7024 30.052h-10.354z"/>
</g>
</g>
<g id="logo-droplet" transform="matrix(1.4094 0 0 1.4094 7.0792 -104.21)">
<path d="m115.88 232.84c-2.5674 3.4944-6.6356 8.786-13.748 15.252-7.7906 7.0824-17.788 10.912-26.541 16.118-8.7532 5.2057-16.437 11.547-23.211 21.224-6.4342 9.1916-8.6021 22.81-5.5938 35.156 2.8572 11.726 12.459 23.491 25.531 27.313 30.841 9.0169 58.462-15.456 56.094-39.375-1.8689-18.877-7.3235-33.866-10.087-46.358-1.1312-5.1133-2.328-13.909-1.764-20.431 0.36865-4.2628 0.8961-7.6308 1.2506-9.734 1.7502-7.3201-0.1068-1.6558-1.9305 0.83614z" fill="url(#monogram-radialGradient4009)"/>
<path stroke-linejoin="round" style="color:#000000" d="m115.88 232.84c-2.5674 3.4944-6.6356 8.786-13.748 15.252-7.7906 7.0824-17.788 10.912-26.541 16.118-8.7532 5.2057-16.437 11.547-23.211 21.224-6.4342 9.1916-9.2798 22.198-5.3429 35.156 3.5888 11.813 14.358 23.968 28.03 27.812 30.377 8.5385 54.339-16.334 53.595-40.627-0.58109-18.961-7.5744-33.113-10.338-45.606-1.1312-5.1133-2.328-13.909-1.764-20.431 0.36865-4.2628 0.8961-7.6308 1.2506-9.734 1.7502-7.3201-0.1068-1.6558-1.9305 0.83614z" stroke="#2f7c9a" stroke-width="3.0001" fill="none"/>
<path d="m105.43 251.82c-12.627 13.89-33.335 15.784-45.962 32.956-13.114 17.835-9.9862 39.275-2.4101 46.093 7.5761 6.8185 7.2083-5.5609 6.1982-12.127-1.0102-6.566 2.3991-27.274 16.668-36.744 14.268-9.4702 25.759-19.445 25.506-30.178z" fill="#8bbfda"/>
</g>
<g id="logo-chart" transform="matrix(1.4094 0 0 1.4094 7.0792 -104.21)">
<g opacity=".75309" transform="translate(.63135 1.2627)">
<path d="m57.579 243.86h10.228l-13.511 52.023h-10.354z"/>
<path d="m77.277 229.34h10.228l-16.92 66.544h-10.354z"/>
<path d="m86.494 254.72h10.228l-10.733 41.164h-10.354z"/>
<path d="m99.247 265.83h10.228l-7.7024 30.052h-10.354z"/>
</g>
<g>
<path fill="#ffa600" d="m57.579 243.86h10.228l-13.511 52.023h-10.354z"/>
<path d="m77.277 229.34h10.228l-16.92 66.544h-10.354z" fill="#ff3e00"/>
<path d="m86.494 254.72h10.228l-10.733 41.164h-10.354z" fill="#bc1183"/>
<path d="m99.247 265.83h10.228l-7.7024 30.052h-10.354z" fill="#683797"/>
</g>
</g>
</g>
</svg>
