<?xml version="1.0" encoding="UTF-8" standalone="no"?>
<svg xmlns:rdf="http://www.w3.org/1999/02/22-rdf-syntax-ns#" xmlns="http://www.w3.org/2000/svg" height="183" width="619" version="1.1" preserveAspectRatio="xMinYMin meet" xmlns:cc="http://creativecommons.org/ns#" xmlns:xlink="http://www.w3.org/1999/xlink" viewBox="0 0 619 183" xmlns:dc="http://purl.org/dc/elements/1.1/">
<defs>
<radialGradient id="logo-radialGradient4009" gradientUnits="userSpaceOnUse" cy="337.3" cx="-54.844" gradientTransform="matrix(-.22758 1.5565 -1.2108 -.17703 470.66 423.98)" r="42.805">
<stop stop-color="#cfecfa" offset="0"/>
<stop stop-color="#3877ae" offset="1"/>
</radialGradient>
<radialGradient id="logo-radialGradient4031" gradientUnits="userSpaceOnUse" cy="221.5" cx="15.913" gradientTransform="matrix(.96358 .26743 -.43489 1.567 187.63 -7.6284)" r="6.8983">
<stop stop-color="#0e6f7e" offset="0"/>
<stop stop-color="#1b80b6" offset="1"/>
</radialGradient>
</defs>
<g transform="translate(-33.5 -216.88)">
<g id="logo-text-aqua" fill="#0f238c">
<path d="m171.21 391c1.0052-3.5974 3.9204-12.91 7.8389-25.107 8.4393-26.268 9.5085-33.024 4.6517-37.35-5.2462-4.6718-14.022-4.661-18.558-0.85681-4.1754 3.5017-5.8715 9.0203-4.2769 13.852 1.3734 4.1615 6.8938 9.3863 10.827 10.247 1.5024 0.32889 4.5087 0.93624 5.1529 1.1314-0.49726 1.4158-0.64599 2.091-2.0968 6.9879-1.1099 3.7464-2.3185 7.1331-2.6858 7.5261-1.0278 1.0998-9.907-0.37741-15.31-4.0116-9.4582-6.3615-13.334-17.402-13.176-26.921 0.16866-10.143 2.7257-16.528 8.4749-21.981 5.8243-5.5244 10.76-7.7823 20.458-7.7774 7.3084 0.004 13.47 1.7999 17.93 4.1396 6.3838 3.3487 8.6998 7.111 11.704 13.209 1.8167 3.6873 2.2699 6.2524 2.231 12.627-0.0434 7.1236-0.85605 10.52-7.4178 31-4.0529 12.65-8.6022 24.634-9.1272 25.321-5.3534 0.0116-17.562 1.3306-16.621-2.038z"/>
<path id="logo-path3805" d="m98.196 366.85c-14.239-2.8933-22.012-16.057-23.06-28.268-0.95323-11.104 3.8415-22.066 15.744-28.602 8.5214-4.6791 18.34-4.3299 27.134-1.235 9.963 3.5066 17.688 12.983 17.661 23.913-0.0108 4.2548-0.92359 11.888-4.9 26.806l-2.3182 8.3182h-17.613l6.0045-22.273c1.4917-5.5334 1.8261-10.952-0.3816-15.221-1.5574-3.0116-5.0979-6.0743-12.158-6.0743-8.5524 0-14.369 7.9203-12.977 15.34 1.1569 6.1666 5.4919 10.964 13.317 12.928 0.90595 0.22741 2.6742 0.45305 2.6742 0.45305s-0.46232 1.266-0.74864 3.0291c-0.33496 2.0625-1.18 5.5946-1.8778 7.8491l-1.2688 4.0991z" fill="#0f238c"/>
<path d="m235.08 367.09c-9.8249-1.8116-17.348-9.0739-20.542-19.831-2.2816-7.6829-1.946-11.781 2.2146-27.04l3.5915-13.589 17.125-0.0912c0 0.90774-2.1107 8.7135-4.0357 15.818-4.1274 15.234-4.3379 19.323-1.2319 23.932 4.4558 6.612 12.601 6.1065 17.355-1.0769 1.4165-2.1405 4.428-10.993 7.1744-21.091l4.7332-17.402 17.005 0.008c-0.53571 3.2865-10.136 38.6-11.942 42.922-2.2149 5.3011-10.022 13.084-15.38 15.334-5.9985 2.518-10.582 3.1194-16.067 2.1082z"/>
<use xlink:href="#logo-path3805" transform="translate(205.74)" height="1052.3622" width="744.09448" y="0" x="0"/>
</g>
<g id="logo-text-mark" fill="#1a80b6">
<path d="m346.72 367.84c-0.19194-1.2764-0.16836-1.3489 5.6257-22.413 6.4991-23.627 7.2601-25.634 11.594-30.57 9.5181-10.841 26.771-12.809 37.435-4.2721l2.9474 2.3596 3.8211-2.768c7.2204-5.2304 20.13-6.3557 27.922-2.4337 5.6919 2.8651 11.723 9.4871 13.872 15.23 2.7279 7.2909 2.5037 12.801-1.0676 26.245-1.6837 6.1162-3.1947 12.573-5.1083 18.622h-18.923c0-0.30222 2.1455-8.346 4.6587-17.665 4.7597-17.65 4.86-19.643 1.1901-23.655-4.4394-4.8534-12.419-3.2929-15.307 2.9933-1.198 2.6078-10.542 36.556-10.542 38.327h-19c0-0.71035 2.0847-9.5842 4.5236-18.603 4.078-15.08 4.3254-16.658 3.0788-19.642-2.6404-6.3194-10.772-7.9535-15.304-3.0752-1.3079 1.4079-3.9732 9.2085-7.4136 21.698l-5.4609 19.622z"/>
<path d="m523.94 367.9c0.27691-0.9625 3.1614-12.179 5.9736-23.179 2.8121-11 6.0542-21.877 7.1318-24.206 7.2167-15.596 30.064-19.769 41.914-11.068l-6.0408 16.691c-2.7411-1.4859-5.4238-1.7644-8.5508-1.7996-4.9422-0.0555-6.7015 0.75744-9.3023 3.2501-3.5362 3.3891-3.5831 3.5016-10.151 24.383l-5.022 15.893z"/>
<path d="m569.8 367.72c9.0402-29.257 16.039-53.092 25.441-83.893h17.01c-8.8264 29.375-16.192 53.187-25.473 83.893z"/>
<path d="m610.49 363.68c1.0032-5.9008-1.5189-12.338-6.1505-16.405l-3.4621-3.0398 4.4307-15.068c11.71-4.1064 16.085-10.72 18.912-24.302h19.494l-1.7317 7.6964c-3.2393 14.396-11.171 19.735-19.894 25.587 4.7421 5.2283 7.043 10.085 6.9673 18.354-0.0542 5.9192-0.85479 9.7858-2.1309 11.191l-17.117-0.006z"/>
<path d="m484.12 366.85c-14.239-2.8933-22.012-16.057-23.06-28.268-0.95323-11.104 3.8415-22.066 15.744-28.602 8.5214-4.6791 18.34-4.3299 27.134-1.235 9.963 3.5066 17.688 12.983 17.661 23.913-0.0108 4.2548-0.92359 11.888-4.9 26.806l-2.3182 8.3182h-17.613l6.0045-22.273c1.4917-5.5334 1.8261-10.952-0.3816-15.221-1.5574-3.0116-5.0979-6.0743-12.158-6.0743-8.5524 0-14.369 7.9203-12.977 15.34 1.1569 6.1666 5.4919 10.964 13.317 12.928 0.90595 0.22741 2.6742 0.45305 2.6742 0.45305s-0.46232 1.266-0.74864 3.0291c-0.33496 2.0625-1.18 5.5946-1.8778 7.8491l-1.2688 4.0991z"/>
</g>
<g id="logo-droplet">
<path d="m105.75 331.28c-2.1037 0-3.8103 0.38771-5.0312 1.2188-1.221 0.83104-1.9689 2.0952-2.1875 3.9688-0.43598 3.7369 2.1745 7.63 5.5938 8.5625 1.7244 0.4703 3.2875 0.53418 4.5-0.0625s2.0932-1.8398 2.4062-4.125c0.31491-2.2988 0.42769-4.7228-0.25-6.5312-0.67769-1.8085-2.123-3.0312-5.0312-3.0312z" stroke="#117ab2" fill="url(#logo-radialGradient4031)"/>
<path d="m115.88 232.84c-2.5674 3.4944-6.6356 8.786-13.748 15.252-7.7906 7.0824-17.788 10.912-26.541 16.118-8.7532 5.2057-16.437 11.547-23.211 21.224-6.4342 9.1916-8.6021 22.81-5.5938 35.156 2.8572 11.726 11.936 22.821 24.656 27.688-5.4027-19.782 2.6885-37.842 18.75-44.625 15.055-6.3579 29.176-2.0189 38.219 4.875 0.52137-20.616-7.3235-33.866-10.087-46.358-1.1312-5.1133-2.328-13.909-1.764-20.431 0.36865-4.2628 0.8961-7.6308 1.2506-9.734 1.7502-7.3201-0.1068-1.6558-1.9305 0.83614z" fill="url(#logo-radialGradient4009)"/>
<path style="block-progression:tb;text-indent:0;color:#000000;text-transform:none" d="m127.12 307.84 2.3438 1.8125 0.0625-2.9688c0.53088-20.992-7.0678-32.72-9.75-44.844-1.1011-4.977-2.2572-13.743-1.7188-19.969 0.36391-4.208 0.86732-7.5402 1.2188-9.625 0.41742-1.7485 0.65353-2.718 0.71875-3.4062 0.0168-0.17692 0.0353-0.30613-0.0312-0.65625-0.0333-0.17506-0.0716-0.47429-0.4375-0.84375-0.36592-0.36946-1.1751-0.50275-1.5625-0.375h-0.00005c-0.77488 0.2555-0.73848 0.4842-0.84375 0.625s-0.17533 0.2781-0.25 0.40625c-0.59735 1.0252-1.4835 2.9641-2.2188 3.9688-2.5475 3.4674-6.5095 8.6478-13.531 15.031-7.5172 6.8338-17.406 10.64-26.312 15.938-8.8817 5.2821-16.753 11.763-23.656 21.625-6.7426 9.6321-8.9513 23.621-5.8438 36.375 2.9507 12.11 10.761 23.072 23.969 28.125l2.8125 1.0625-0.836-2.86-3.469-2.19c-10.633-5.04-16.971-14.3-19.531-24.81-2.909-11.939-0.7821-25.186 5.3438-33.938 6.6452-9.4929 14.125-15.683 22.75-20.812 8.5998-5.1145 18.717-8.9503 26.781-16.281 6.359-5.7809 10.123-10.448 12.75-13.938-0.2834 1.9252-0.57259 3.5696-0.8125 6.3438-0.58974 6.8193 0.61984 15.625 1.7812 20.875 2.7063 12.233 9.409 22.895 9.625 41.312z" fill="#2f7c9a"/>
<path d="m105.43 251.82c-12.627 13.89-33.335 15.784-45.962 32.956-13.114 17.835-11.617 40.027-4.0406 46.846 7.5761 6.8185 8.8388-6.3134 7.8287-12.879-1.0102-6.566 2.3991-27.274 16.668-36.744 14.268-9.4702 25.759-19.445 25.506-30.178z" fill="#8bbfda"/>
</g>
<g id="logo-chart">
<g opacity=".75309" transform="translate(.63135 1.2627)">
<path d="m57.579 243.86h10.228l-13.511 52.023h-10.354z"/>
<path d="m77.277 229.34h10.228l-16.92 66.544h-10.354z"/>
<path d="m86.494 254.72h10.228l-10.733 41.164h-10.354z"/>
<path d="m99.247 265.83h10.228l-7.7024 30.052h-10.354z"/>
</g>
<g>
<path fill="#ffa600" d="m57.579 243.86h10.228l-13.511 52.023h-10.354z"/>
<path d="m77.277 229.34h10.228l-16.92 66.544h-10.354z" fill="#ff3e00"/>
<path d="m86.494 254.72h10.228l-10.733 41.164h-10.354z" fill="#bc1183"/>
<path d="m99.247 265.83h10.228l-7.7024 30.052h-10.354z" fill="#683797"/>
</g>
</g>
<g id="logo-text-subtitle">
<use xlink:href="#logo-path4143" transform="translate(63.254)" height="1052.3622" width="744.09448" y="0" x="0"/>
<use xlink:href="#logo-path4143" transform="translate(14.523)" height="1052.3622" width="744.09448" y="0" x="0"/>
<use xlink:href="#logo-path4047" transform="translate(362.41)" height="1052.3622" width="744.09448" y="0" x="0"/>
<use xlink:href="#logo-path4047" transform="translate(11.125)" height="1052.3622" width="744.09448" y="0" x="0"/>
<use xlink:href="#logo-path4065" transform="translate(258.62)" height="1052.3622" width="744.09448" y="0" x="0"/>
<use xlink:href="#logo-path4065" transform="translate(170.12)" height="1052.3622" width="744.09448" y="0" x="0"/>
<use xlink:href="#logo-path4065" transform="translate(34.125)" height="1052.3622" width="744.09448" y="0" x="0"/>
<use xlink:href="#logo-path4057" transform="translate(26.75)" height="1052.3622" width="744.09448" y="0" x="0"/>
<path id="logo-path4047" style="block-progression:tb;color:#000000;text-transform:none;text-indent:0" d="m222.08 377.44v1.8207c-0.54412-0.27903-1.1092-0.4883-1.6951-0.62782-0.58598-0.13951-1.1929-0.20927-1.8207-0.20928-0.95569 0.00001-1.6742 0.1465-2.1555 0.43948-0.47436 0.29299-0.71154 0.73246-0.71153 1.3184-0.00001 0.44645 0.1709 0.79873 0.51272 1.0568 0.34181 0.25113 1.0289 0.4918 2.0613 0.72199l0.65921 0.14649c1.3672 0.29299 2.3369 0.70805 2.9089 1.2452 0.57898 0.53017 0.86848 1.2731 0.86849 2.2288-0.00001 1.0882-0.43251 1.9497-1.2975 2.5845-0.85802 0.63479-2.0404 0.95219-3.5472 0.95219-0.62782 0-1.2835-0.0628-1.9672-0.18835-0.67666-0.11859-1.3917-0.29996-2.145-0.54411v-1.9881c0.71152 0.36972 1.4126 0.64875 2.1032 0.83709 0.6906 0.18137 1.3742 0.27206 2.0509 0.27206 0.90684 0 1.6044-0.15347 2.0927-0.46041 0.4883-0.3139 0.73245-0.75338 0.73246-1.3184-0.00001-0.52317-0.17789-0.92428-0.53365-1.2033-0.3488-0.27902-1.1196-0.54759-2.3125-0.8057l-0.66967-0.15695c-1.1929-0.25112-2.0544-0.63479-2.5845-1.151-0.53016-0.52318-0.79523-1.2382-0.79523-2.145 0-1.1022 0.39064-1.9532 1.1719-2.5531 0.78128-0.5999 1.8904-0.89986 3.3274-0.89987 0.71152 0.00001 1.3812 0.0523 2.009 0.15696 0.62781 0.10464 1.2068 0.2616 1.737 0.47086"/>
<path style="block-progression:tb;color:#000000;text-transform:none;text-indent:0" d="m246.99 382.48v0.94173h-8.8522c0.0837 1.3254 0.48133 2.3369 1.1929 3.0345 0.7185 0.6906 1.716 1.0359 2.9926 1.0359 0.73943 0 1.4544-0.0907 2.145-0.27206 0.69757-0.18136 1.3882-0.45342 2.0718-0.81616v1.8207c-0.69062 0.29299-1.3987 0.51621-2.1241 0.66968-0.72548 0.15346-1.4614 0.2302-2.2078 0.2302-1.8695 0-3.3519-0.54411-4.447-1.6323-1.0882-1.0882-1.6323-2.5601-1.6323-4.4157 0-1.9183 0.51621-3.439 1.5486-4.5622 1.0394-1.1301 2.438-1.6951 4.1959-1.6951 1.5765 0.00001 2.8217 0.50924 3.7355 1.5277 0.92079 1.0115 1.3812 2.3892 1.3812 4.1332m-1.9253-0.56504c-0.014-1.0533-0.31043-1.8939-0.88941-2.5217-0.57202-0.62781-1.3324-0.94172-2.2811-0.94173-1.0743 0.00001-1.9358 0.30346-2.5845 0.91034-0.64177 0.6069-1.0115 1.4614-1.1092 2.5636l6.8642-0.0105"/>
<path id="logo-path4053" style="block-progression:tb;color:#000000;text-transform:none;text-indent:0" d="m252.05 373.77v3.3274h3.9657v1.4963h-3.9657v6.3619c-0.00001 0.95569 0.12904 1.5696 0.38715 1.8416 0.26508 0.27205 0.79872 0.40808 1.6009 0.40808h1.9776v1.6114h-1.9776c-1.4858 0-2.5113-0.27554-3.0763-0.82663-0.56504-0.55806-0.84756-1.5695-0.84756-3.0345v-6.3619h-1.4126v-1.4963h1.4126v-3.3274h1.9358"/>
<path style="block-progression:tb;color:#000000;text-transform:none;text-indent:0" d="m266.07 373.19h3.1496l3.9866 10.631 4.0076-10.631h3.1496v15.622h-2.0613v-13.718l-4.0285 10.715h-2.1241l-4.0285-10.715v13.718h-2.0509v-15.622"/>
<path id="logo-path4057" style="block-progression:tb;color:#000000;text-transform:none;text-indent:0" d="m289.82 382.93c-1.5556 0.00001-2.6334 0.17789-3.2333 0.53365-0.59992 0.35577-0.89987 0.96266-0.89987 1.8207 0 0.68363 0.22322 1.2277 0.66967 1.6323 0.45342 0.39762 1.0673 0.59643 1.8416 0.59643 1.0673 0 1.9218-0.37669 2.5636-1.1301 0.64874-0.76035 0.97311-1.7684 0.97312-3.024v-0.42901h-1.9148m3.8402-0.79523v6.6863h-1.9253v-1.7788c-0.43948 0.71153-0.98708 1.2382-1.6428 1.58-0.65573 0.33484-1.4579 0.50226-2.4066 0.50226-1.1998 0-2.1555-0.33484-2.867-1.0045-0.70456-0.67665-1.0568-1.58-1.0568-2.7101-0.00001-1.3184 0.43947-2.3125 1.3184-2.9821 0.88592-0.66967 2.2043-1.0045 3.9553-1.0045h2.6996v-0.18835c-0.00001-0.88591-0.29299-1.5695-0.87895-2.0509-0.57899-0.4883-1.3952-0.73245-2.4485-0.73246-0.66968 0.00001-1.3219 0.0802-1.9567 0.24066s-1.2452 0.40112-1.8311 0.722v-1.7788c0.70455-0.27205 1.3882-0.47435 2.0509-0.6069 0.6627-0.1395 1.308-0.20926 1.9358-0.20927 1.6951 0.00001 2.9612 0.43949 3.7983 1.3184 0.83708 0.87896 1.2556 2.2113 1.2556 3.9971"/>
<path id="logo-path4059" style="block-progression:tb;color:#000000;text-transform:none;text-indent:0" d="m307.37 381.74v7.0734h-1.9253v-7.0106c-0.00001-1.1091-0.21626-1.9392-0.64875-2.4904-0.4325-0.55107-1.0812-0.82661-1.9462-0.82663-1.0394 0.00002-1.859 0.33136-2.459 0.99405-0.59992 0.66271-0.89988 1.5661-0.89988 2.7101v6.6235h-1.9358v-11.719h1.9358v1.8207c0.4604-0.70454 1.001-1.2312 1.6219-1.58 0.62781-0.34877 1.3498-0.52317 2.166-0.52318 1.3463 0.00001 2.3648 0.41856 3.0554 1.2556 0.69059 0.83013 1.0359 2.0544 1.0359 3.6727"/>
<path style="block-progression:tb;color:#000000;text-transform:none;text-indent:0" d="m332.09 382.82c-0.00001-1.3952-0.2895-2.4764-0.86848-3.2437-0.57202-0.76733-1.3777-1.151-2.4171-1.151-1.0324 0.00001-1.8381 0.38368-2.4171 1.151-0.57201 0.76734-0.85802 1.8486-0.85802 3.2437 0 1.3882 0.28601 2.4659 0.85802 3.2333 0.57899 0.76733 1.3847 1.151 2.4171 1.151 1.0394 0 1.8451-0.38367 2.4171-1.151 0.57898-0.76733 0.86847-1.8451 0.86848-3.2333m1.9253 4.5412c-0.00001 1.9951-0.44298 3.4774-1.3289 4.4471-0.88593 0.9766-2.2427 1.4649-4.0704 1.4649-0.67665 0-1.3149-0.0523-1.9148-0.15696-0.59992-0.0977-1.1824-0.25113-1.7474-0.4604v-1.873c0.56504 0.30693 1.1231 0.53364 1.6742 0.68014 0.55108 0.14649 1.1126 0.21973 1.6846 0.21973 1.2626 0 2.2078-0.33135 2.8356-0.99404 0.62781-0.65573 0.94171-1.6498 0.94172-2.9821v-0.9522c-0.39762 0.69061-0.90685 1.2068-1.5277 1.5486-0.62085 0.34182-1.3638 0.51272-2.2288 0.51272-1.437 0-2.595-0.54759-3.4739-1.6428-0.87895-1.0952-1.3184-2.5462-1.3184-4.3529 0-1.8137 0.43947-3.2681 1.3184-4.3634 0.87894-1.0952 2.0369-1.6428 3.4739-1.6428 0.86499 0.00001 1.6079 0.17092 2.2288 0.51272 0.62084 0.34182 1.1301 0.85803 1.5277 1.5486v-1.7788h1.9253v10.265"/>
<path id="logo-path4065" style="block-progression:tb;color:#000000;text-transform:none;text-indent:0" d="m348 382.48v0.94173h-8.8522c0.0837 1.3254 0.48133 2.3369 1.1929 3.0345 0.7185 0.6906 1.716 1.0359 2.9926 1.0359 0.73943 0 1.4544-0.0907 2.145-0.27206 0.69757-0.18136 1.3882-0.45342 2.0718-0.81616v1.8207c-0.69061 0.29299-1.3986 0.51621-2.1241 0.66968-0.72549 0.15346-1.4614 0.2302-2.2078 0.2302-1.8695 0-3.3519-0.54411-4.447-1.6323-1.0882-1.0882-1.6323-2.5601-1.6323-4.4157 0-1.9183 0.51621-3.439 1.5486-4.5622 1.0394-1.1301 2.438-1.6951 4.1959-1.6951 1.5765 0.00001 2.8217 0.50924 3.7355 1.5277 0.92079 1.0115 1.3812 2.3892 1.3812 4.1332m-1.9253-0.56504c-0.014-1.0533-0.31043-1.8939-0.88941-2.5217-0.57202-0.62781-1.3324-0.94172-2.2811-0.94173-1.0743 0.00001-1.9358 0.30346-2.5845 0.91034-0.64177 0.6069-1.0115 1.4614-1.1092 2.5636l6.8642-0.0105"/>
<path id="logo-path4067" style="block-progression:tb;color:#000000;text-transform:none;text-indent:0" d="m360.29 379.35c0.48132-0.86498 1.0568-1.5033 1.7265-1.9148 0.66966-0.41156 1.4579-0.61735 2.3648-0.61736 1.2208 0.00001 2.1625 0.42902 2.8252 1.287 0.66268 0.85105 0.99403 2.0648 0.99405 3.6414v7.0734h-1.9358v-7.0106c-0.00002-1.1231-0.19882-1.9567-0.59643-2.5008-0.39763-0.5441-1.0045-0.81615-1.8207-0.81617-0.99755 0.00002-1.7858 0.33136-2.3648 0.99405-0.579 0.66271-0.86849 1.5661-0.86848 2.7101v6.6235h-1.9358v-7.0106c-0.00001-1.1301-0.19882-1.9637-0.59643-2.5008-0.39762-0.5441-1.0115-0.81615-1.8416-0.81617-0.98359 0.00002-1.7649 0.33485-2.3439 1.0045-0.57899 0.6627-0.86849 1.5626-0.86848 2.6996v6.6235h-1.9358v-11.719h1.9358v1.8207c0.43947-0.71849 0.96614-1.2486 1.58-1.5905 0.61386-0.3418 1.3428-0.51271 2.1869-0.51272 0.85104 0.00001 1.573 0.21626 2.166 0.64875 0.59991 0.43251 1.0429 1.0603 1.3289 1.8834"/>
<use xlink:href="#logo-path4059" transform="translate(87.602)" height="1052.3622" width="744.09448" y="0" x="0"/>
<use xlink:href="#logo-path4053" transform="translate(148.69)" height="1052.3622" width="744.09448" y="0" x="0"/>
<use xlink:href="#logo-path4143" transform="translate(277.97)" height="1052.3622" width="744.09448" y="0" x="0"/>
<use xlink:href="#logo-path4047" transform="translate(214.72)" height="1052.3622" width="744.09448" y="0" x="0"/>
<use xlink:href="#logo-path4047" transform="translate(225.9)" height="1052.3622" width="744.09448" y="0" x="0"/>
<use xlink:href="#logo-path4065" transform="translate(113.75)" height="1052.3622" width="744.09448" y="0" x="0"/>
<use xlink:href="#logo-path4047" transform="translate(250.25)" height="1052.3622" width="744.09448" y="0" x="0"/>
<use xlink:href="#logo-path4047" transform="translate(261.43)" height="1052.3622" width="744.09448" y="0" x="0"/>
<use xlink:href="#logo-path4067" transform="translate(136.05)" height="1052.3622" width="744.09448" y="0" x="0"/>
<use xlink:href="#logo-path4059" transform="translate(223.65)" height="1052.3622" width="744.09448" y="0" x="0"/>
<use xlink:href="#logo-path4053" transform="translate(284.74)" height="1052.3622" width="744.09448" y="0" x="0"/>
<use xlink:href="#logo-path4141" transform="matrix(1.0477 0 0 1 421.26 0)" height="1052.3622" width="744.09448" y="0" x="0"/>
<path style="block-progression:tb;color:#000000;text-transform:none;text-indent:0" d="m567.63 393.42-1.8702-0.0373c0.73511-1.3326 1.3759-3.3334 1.9327-4.7506l-4.74-11.531h2.0404l3.6623 9.1662 3.6623-9.1662h2.0404"/>
<use xlink:href="#logo-path4053" transform="translate(338.05)" height="1052.3622" width="744.09448" y="0" x="0"/>
<use xlink:href="#logo-path4067" transform="translate(258.63)" height="1052.3622" width="744.09448" y="0" x="0"/>
<path style="block-progression:tb;color:#000000;text-transform:none;text-indent:0" d="m102.15 373.19h2.0348l3.1321 13.205 3.1221-13.205h2.2643l3.1321 13.205 3.1221-13.205h2.0448l-3.7405 15.622h-2.5336l-3.142-13.561-3.172 13.561h-2.5336l-3.7306-15.622"/>
<path id="logo-path4141" style="block-progression:tb;color:#000000;text-transform:none;text-indent:0" d="m132.6 373.71v2.0613c-0.76474-0.38366-1.4862-0.66966-2.1645-0.85802-0.67829-0.18834-1.3333-0.2825-1.965-0.28252-1.0972 0.00002-1.9451 0.22323-2.5436 0.66967-0.59184 0.44646-0.88776 1.0813-0.88776 1.9044 0 0.69061 0.19617 1.2138 0.58851 1.5696 0.39899 0.3488 1.1504 0.63132 2.2543 0.84756l1.2169 0.26158c1.5028 0.29998 2.61 0.83013 3.3216 1.5905 0.71817 0.75338 1.0772 1.7649 1.0773 3.0344-0.00001 1.5138-0.48544 2.6612-1.4563 3.4426-0.96423 0.78128-2.3806 1.1719-4.2492 1.1719-0.70489 0-1.4563-0.0837-2.2543-0.25112-0.79134-0.16742-1.6126-0.41507-2.4638-0.74293v-2.1764c0.81793 0.48133 1.6192 0.84406 2.4039 1.0882 0.78468 0.24416 1.5561 0.36623 2.3142 0.36623 1.1504 0 2.0382-0.23718 2.6632-0.71152 0.62507-0.47435 0.93761-1.151 0.93762-2.03-0.00001-0.76733-0.2261-1.3672-0.67828-1.7998-0.44554-0.4325-1.1804-0.75687-2.2044-0.97312l-1.2269-0.25113c-1.5029-0.31391-2.5901-0.80569-3.2618-1.4754-0.67163-0.66966-1.0074-1.6009-1.0074-2.7938 0-1.3812 0.46216-2.4694 1.3865-3.2647 0.93098-0.79522 2.2111-1.1928 3.8403-1.1929 0.69822 0.00002 1.4098 0.0663 2.1346 0.19881 0.72482 0.13256 1.4663 0.33136 2.2244 0.59643"/>
<path id="logo-path4143" style="block-progression:tb;color:#000000;text-transform:none;text-indent:0" d="m142.01 375.28-2.7331 7.7745h5.4761l-2.7431-7.7745m-1.1371-2.0823h2.2842l5.6756 15.622h-2.0947l-1.3566-4.0076h-6.713l-1.3566 4.0076h-2.1246l5.6856-15.622"/>
</g>
</g>
</svg>
