<?xml version="1.0" encoding="UTF-8" standalone="no"?>
<svg xmlns:rdf="http://www.w3.org/1999/02/22-rdf-syntax-ns#" xmlns="http://www.w3.org/2000/svg" viewbox="0 0 178 52" height="52" width="178" version="1.1" xmlns:cc="http://creativecommons.org/ns#" xmlns:dc="http://purl.org/dc/elements/1.1/">
<g transform="translate(0 -1000.4)">
<path d="m51.02 1042.8-12.099-32.792c-0.4927-1.1497-1.0401-1.697-2.2445-1.697h-5.2555c-1.2044 0-1.8066 0.5473-2.2445 1.697l-12.153 32.792c-0.27372 0.657-0.27372 1.5328 0.93066 1.5328h5.7482c1.2044 0 1.6423-0.3283 2.0803-1.6422l1.5328-4.325h13.412l1.5328 4.325c0.43796 1.3139 0.87591 1.6422 2.0803 1.6422h5.7482c1.2044 0 1.2044-0.8758 0.93066-1.5328m-21.077-12.098 4.1058-12.099 4.1058 12.099h-8.2117zm58.67-22.445h-5.2555c-1.8066 0-2.0803 1.2044-2.4635 1.8612l-7.5548 13.467-7.5-13.467c-0.43796-0.6568-0.65694-1.8612-2.5183-1.8612h-5.4197c-1.2591 0-1.5876 0.6021-1.5876 1.5876v32.902c0 1.2591 0.60219 1.5874 1.5876 1.5874h5.4197c0.9854 0 1.5876-0.3283 1.5876-1.5874v-18.558l5.5292 9.5803c0.27372 0.438 0.71168 1.1496 1.5328 1.1496h2.7372c0.82117 0 1.3139-0.7116 1.5876-1.1496l5.4745-9.5803v18.558c0 1.2591 0.60219 1.5874 1.5876 1.5874h5.2555c0.9854 0 1.5876-0.3283 1.5876-1.5874v-32.902c0-0.9855-0.32847-1.5876-1.5876-1.5876m37.067 25.401c0-1.3138-0.43796-1.8613-1.6423-1.8613h-5.365c-1.2044 0-1.3139 0.8761-1.4781 1.9708-0.43797 2.6279-2.792 3.7226-5.7482 3.7226-3.6132 0-6.0766-1.9708-6.0766-5.4744v-11.387c0-3.4489 2.4635-5.4744 6.0766-5.4744 2.9562 0 4.489 0.8212 5.6387 2.6276 0.43797 0.657 0.49271 1.6973 1.6424 1.6973h5.2555c1.2591 0 1.6971-0.2738 1.6971-1.5877-0.71168-6.9526-7.4453-10.402-14.234-10.402-6.5146 0-14.672 3.7774-14.672 12.372v12.92c0 8.595 8.1569 12.372 14.672 12.372 6.7883 0 14.234-4.4344 14.234-11.496m35.589-25.347h-5.803c-1.4781 0-1.8613 0.4378-2.2993 1.7518l-7.3905 22.664-7.4452-22.664c-0.43796-1.314-0.82118-1.7518-2.2445-1.7518h-6.0766c-1.0401 0-1.2591 0.8758-0.98539 1.5874l11.77 32.792c0.65693 1.4233 1.0401 1.6422 2.2445 1.6422h5.2555c1.2044 0 1.5876-0.2189 2.2446-1.6422l11.715-32.792c0.27373-0.7116 0.0548-1.5874-0.98539-1.5874" fill="#41b3dc"/>
</g>
</svg>
