<?xml version="1.0" encoding="UTF-8" standalone="no"?>
<svg xmlns:rdf="http://www.w3.org/1999/02/22-rdf-syntax-ns#" xmlns="http://www.w3.org/2000/svg" height="192" width="192" version="1.1" preserveAspectRatio="xMinYMin meet" xmlns:cc="http://creativecommons.org/ns#" xmlns:xlink="http://www.w3.org/1999/xlink" viewBox="0 0 192 192" xmlns:dc="http://purl.org/dc/elements/1.1/">
<g transform="translate(-33.5 -207.88)" fill="#41b3dc">
<path d="m81.418 268.31 9.2539-27.23 9.2539 27.23zm20.235-46.574c-1.1105-2.5874-2.3443-3.8196-5.0588-3.8196h-11.845c-2.7145 0-4.0717 1.2321-5.0588 3.8196l-27.392 73.804c-0.61693 1.4785-0.61693 3.4499 2.0975 3.4499h12.955c2.7145 0 3.7016-0.73927 4.6887-3.6964l3.4548-9.7337h30.229l3.4548 9.7337c0.98707 2.9571 1.9742 3.6964 4.6886 3.6964h12.955c2.7144 0 2.7144-1.9714 2.0975-3.4499z" stroke="#fff" stroke-width="8"/>
<path d="m203.92 218.14h-10.872c-3.7371 0-4.3033 2.6992-5.0961 4.1715l-15.628 30.182-15.515-30.182c-0.90598-1.4723-1.359-4.1715-5.2093-4.1715h-11.211c-2.6047 0-3.2841 1.3496-3.2841 3.5581v73.738c0 2.8219 1.2457 3.5581 3.2841 3.5581h11.211c2.0384 0 3.2841-0.73615 3.2841-3.5581v-41.593l11.438 21.471c0.56625 0.98154 1.4722 2.5765 3.1709 2.5765h5.6623c1.6987 0 2.7179-1.595 3.2841-2.5765l11.325-21.471v41.593c0 2.8219 1.2457 3.5581 3.2841 3.5581h10.872c2.0384 0 3.2841-0.73615 3.2841-3.5581v-73.738c0-2.2084-0.67948-3.5581-3.2841-3.5581" stroke="#fff" stroke-width="8"/>
<path d="m119.69 368.38c0-2.9446-0.90596-4.1715-3.3974-4.1715h-11.098c-2.4914 0-2.7179 1.9631-3.0576 4.4169-0.90596 5.8892-5.7755 8.3431-11.891 8.3431-7.4742 0-12.57-4.4169-12.57-12.269v-25.52c0-7.7296 5.096-12.269 12.57-12.269 6.1153 0 9.2861 1.8404 11.664 5.8892 0.90595 1.4723 1.0192 3.8034 3.3974 3.8034h10.872c2.6046 0 3.5106-0.61345 3.5106-3.5581-1.4722-15.582-15.401-23.311-29.444-23.311-13.476 0-30.35 8.4658-30.35 27.728v28.955c0 19.263 16.874 27.728 30.35 27.728 14.042 0 29.444-9.9381 29.444-25.765" stroke="#fff" stroke-width="8"/>
<path d="m205.9 311.57h-12.004c-3.0576 0-3.8504 0.98154-4.7563 3.9261l-15.288 50.795-15.401-50.795c-0.90598-2.9446-1.6987-3.9261-4.6431-3.9261h-12.57c-2.1516 0-2.6046 1.9631-2.0384 3.5581l24.348 73.493c1.359 3.19 2.1517 3.6808 4.643 3.6808h10.872c2.4914 0 3.2841-0.49078 4.6431-3.6808l24.235-73.493c0.56623-1.595 0.11332-3.5581-2.0384-3.5581" stroke="#fff" stroke-width="8"/>
<path d="m81.418 268.31 9.2539-27.23 9.2539 27.23zm20.235-46.574c-1.1105-2.5874-2.3443-3.8196-5.0588-3.8196h-11.845c-2.7145 0-4.0717 1.2321-5.0588 3.8196l-27.392 73.804c-0.61693 1.4785-0.61693 3.4499 2.0975 3.4499h12.955c2.7145 0 3.7016-0.73927 4.6887-3.6964l3.4548-9.7337h30.229l3.4548 9.7337c0.98707 2.9571 1.9742 3.6964 4.6886 3.6964h12.955c2.7144 0 2.7144-1.9714 2.0975-3.4499z"/>
<path d="m203.92 218.14h-10.872c-3.7371 0-4.3033 2.6992-5.0961 4.1715l-15.628 30.182-15.515-30.182c-0.90598-1.4723-1.359-4.1715-5.2093-4.1715h-11.211c-2.6047 0-3.2841 1.3496-3.2841 3.5581v73.738c0 2.8219 1.2457 3.5581 3.2841 3.5581h11.211c2.0384 0 3.2841-0.73615 3.2841-3.5581v-41.593l11.438 21.471c0.56625 0.98154 1.4722 2.5765 3.1709 2.5765h5.6623c1.6987 0 2.7179-1.595 3.2841-2.5765l11.325-21.471v41.593c0 2.8219 1.2457 3.5581 3.2841 3.5581h10.872c2.0384 0 3.2841-0.73615 3.2841-3.5581v-73.738c0-2.2084-0.67948-3.5581-3.2841-3.5581"/>
<path d="m119.69 368.38c0-2.9446-0.90596-4.1715-3.3974-4.1715h-11.098c-2.4914 0-2.7179 1.9631-3.0576 4.4169-0.90596 5.8892-5.7755 8.3431-11.891 8.3431-7.4742 0-12.57-4.4169-12.57-12.269v-25.52c0-7.7296 5.096-12.269 12.57-12.269 6.1153 0 9.2861 1.8404 11.664 5.8892 0.90595 1.4723 1.0192 3.8034 3.3974 3.8034h10.872c2.6046 0 3.5106-0.61345 3.5106-3.5581-1.4722-15.582-15.401-23.311-29.444-23.311-13.476 0-30.35 8.4658-30.35 27.728v28.955c0 19.263 16.874 27.728 30.35 27.728 14.042 0 29.444-9.9381 29.444-25.765"/>
<path d="m205.9 311.57h-12.004c-3.0576 0-3.8504 0.98154-4.7563 3.9261l-15.288 50.795-15.401-50.795c-0.90598-2.9446-1.6987-3.9261-4.6431-3.9261h-12.57c-2.1516 0-2.6046 1.9631-2.0384 3.5581l24.348 73.493c1.359 3.19 2.1517 3.6808 4.643 3.6808h10.872c2.4914 0 3.2841-0.49078 4.6431-3.6808l24.235-73.493c0.56623-1.595 0.11332-3.5581-2.0384-3.5581"/>
</g>
<g opacity=".5" display="none">
<rect height="95" width="95" stroke="#000" y="2.5" x="4.0858" stroke-width="1px" fill="none"/>
</g>
</svg>
