<?xml version="1.0" encoding="UTF-8" standalone="no"?>
<!-- Created with Inkscape (http://www.inkscape.org/) -->

<svg
   xmlns:dc="http://purl.org/dc/elements/1.1/"
   xmlns:cc="http://creativecommons.org/ns#"
   xmlns:rdf="http://www.w3.org/1999/02/22-rdf-syntax-ns#"
   xmlns:svg="http://www.w3.org/2000/svg"
   xmlns="http://www.w3.org/2000/svg"
   xmlns:xlink="http://www.w3.org/1999/xlink"
   xmlns:sodipodi="http://sodipodi.sourceforge.net/DTD/sodipodi-0.dtd"
   xmlns:inkscape="http://www.inkscape.org/namespaces/inkscape"
   viewBox="0 0 192 192"
   preserveAspectRatio="xMinYMin meet"
   width="192"
   height="192"
   id="svg2"
   version="1.1"
   inkscape:version="0.48.5 r10040"
   sodipodi:docname="logo-monogram.svg"
   inkscape:export-filename="/home/adfries/Documents/WSAA_AMIP/aquamark/src/app/client/images/logo-monogram-fav.png"
   inkscape:export-xdpi="30"
   inkscape:export-ydpi="30">
  <defs
     id="defs4">
    <linearGradient
       id="linearGradient4003">
      <stop
         style="stop-color:#cfecfa;stop-opacity:1;"
         offset="0"
         id="stop4005" />
      <stop
         style="stop-color:#3877ae;stop-opacity:1;"
         offset="1"
         id="stop4007" />
    </linearGradient>
    <radialGradient
       inkscape:collect="always"
       xlink:href="#linearGradient4003"
       id="radialGradient4009"
       cx="-54.844479"
       cy="337.30054"
       fx="-54.844479"
       fy="337.30054"
       r="42.805244"
       gradientTransform="matrix(-0.22758124,1.5564734,-1.2107681,-0.17703361,470.66314,423.97863)"
       gradientUnits="userSpaceOnUse" />
    <radialGradient
       inkscape:collect="always"
       xlink:href="#linearGradient4003"
       id="radialGradient3019"
       gradientUnits="userSpaceOnUse"
       gradientTransform="matrix(-0.22758124,1.5564734,-1.2107681,-0.17703361,470.66314,423.97863)"
       cx="-54.844479"
       cy="337.30054"
       fx="-54.844479"
       fy="337.30054"
       r="42.805244" />
    <radialGradient
       inkscape:collect="always"
       xlink:href="#linearGradient4003"
       id="radialGradient3024"
       gradientUnits="userSpaceOnUse"
       gradientTransform="matrix(-0.32194484,2.2018449,-1.7127974,-0.25043829,672.69258,495.69639)"
       cx="-54.844479"
       cy="337.30054"
       fx="-54.844479"
       fy="337.30054"
       r="42.805244" />
  </defs>
  <sodipodi:namedview
     id="base"
     pagecolor="#ffffff"
     bordercolor="#666666"
     borderopacity="1.0"
     inkscape:pageopacity="0"
     inkscape:pageshadow="2"
     inkscape:zoom="1"
     inkscape:cx="178.36346"
     inkscape:cy="129.99917"
     inkscape:document-units="px"
     inkscape:current-layer="layer2"
     showgrid="false"
     showguides="false"
     inkscape:guide-bbox="true"
     inkscape:window-width="1920"
     inkscape:window-height="1014"
     inkscape:window-x="0"
     inkscape:window-y="27"
     inkscape:window-maximized="1"
     fit-margin-top="0"
     fit-margin-left="0"
     fit-margin-right="0"
     fit-margin-bottom="0"
     inkscape:snap-global="true"
     showborder="true">
    <inkscape:grid
       type="xygrid"
       id="grid5183"
       empspacing="5"
       visible="true"
       enabled="true"
       snapvisiblegridlinesonly="true" />
    <sodipodi:guide
       orientation="0,1"
       position="202.23254,48"
       id="guide5185" />
    <sodipodi:guide
       orientation="1,0"
       position="25,220"
       id="guide5187" />
    <sodipodi:guide
       orientation="1,0"
       position="167,261"
       id="guide5189" />
    <sodipodi:guide
       orientation="0,1"
       position="254,190"
       id="guide5191" />
  </sodipodi:namedview>
  <metadata
     id="metadata7">
    <rdf:RDF>
      <cc:Work
         rdf:about="">
        <dc:format>image/svg+xml</dc:format>
        <dc:type
           rdf:resource="http://purl.org/dc/dcmitype/StillImage" />
        <dc:title />
      </cc:Work>
    </rdf:RDF>
  </metadata>
  <g
     transform="translate(-33.5,-207.875)"
     id="g5245"
     inkscape:groupmode="layer"
     inkscape:label="Main copy"
     style="display:inline">
    <path
       inkscape:connector-curvature="0"
       d="m 81.418168,268.31079 9.253909,-27.22978 9.253883,27.22978 z m 20.235172,-46.57405 c -1.11046,-2.58744 -2.34431,-3.81956 -5.058769,-3.81956 l -11.844988,0 c -2.71448,0 -4.071703,1.23212 -5.058793,3.81956 l -27.391532,73.80383 c -0.616928,1.47853 -0.616928,3.44993 2.097547,3.44993 l 12.955446,0 c 2.714474,0 3.701561,-0.73927 4.688654,-3.69635 l 3.454793,-9.73372 30.229372,0 3.4548,9.73372 c 0.98707,2.95708 1.97415,3.69635 4.68864,3.69635 l 12.95547,0 c 2.71445,0 2.71445,-1.9714 2.09752,-3.44993 z"
       style="fill:#41b3dc;fill-opacity:1;fill-rule:nonzero;stroke:#ffffff;stroke-width:8;stroke-miterlimit:4;stroke-opacity:1;stroke-dasharray:none"
       id="path5273"
       sodipodi:nodetypes="cccccssccssccccsscc" />
    <path
       inkscape:connector-curvature="0"
       id="path5275"
       d="m 203.92286,218.13641 -10.87156,0 c -3.73711,0 -4.30333,2.69923 -5.09606,4.17153 l -15.62787,30.18227 -15.51463,-30.18227 c -0.90598,-1.4723 -1.35897,-4.17153 -5.20931,-4.17153 l -11.21129,0 c -2.60466,0 -3.28413,1.34964 -3.28413,3.55809 l 0,73.73793 c 0,2.82192 1.24571,3.55807 3.28413,3.55807 l 11.21129,0 c 2.03843,0 3.28414,-0.73615 3.28414,-3.55807 l 0,-41.59262 11.43777,21.47112 c 0.56625,0.98154 1.47219,2.57652 3.17088,2.57652 l 5.66228,0 c 1.69868,0 2.71789,-1.59498 3.28412,-2.57652 l 11.32454,-21.47112 0,41.59262 c 0,2.82192 1.24571,3.55807 3.28414,3.55807 l 10.87156,0 c 2.0384,0 3.28412,-0.73615 3.28412,-3.55807 l 0,-73.73793 c 0,-2.20845 -0.67948,-3.55809 -3.28412,-3.55809"
       style="fill:#41b3dc;fill-opacity:1;fill-rule:nonzero;stroke:#ffffff;stroke-width:8;stroke-miterlimit:4;stroke-opacity:1;stroke-dasharray:none" />
    <path
       inkscape:connector-curvature="0"
       id="path5277"
       d="m 119.69299,368.3776 c 0,-2.9446 -0.90596,-4.17154 -3.39735,-4.17154 l -11.09807,0 c -2.4914,0 -2.71789,1.96306 -3.05764,4.41692 -0.90596,5.88922 -5.775507,8.34306 -11.890761,8.34306 -7.474213,0 -12.57025,-4.41692 -12.57025,-12.2692 l 0,-25.51996 c 0,-7.72959 5.096037,-12.2692 12.57025,-12.2692 6.115254,0 9.286121,1.84039 11.664281,5.88924 0.90595,1.4723 1.01921,3.80343 3.39736,3.80343 l 10.87157,0 c 2.60465,0 3.51061,-0.61345 3.51061,-3.55807 -1.47218,-15.58192 -15.40139,-23.31149 -29.443821,-23.31149 -13.476218,0 -30.349808,8.46577 -30.349808,27.72841 l 0,28.95533 c 0,19.26266 16.87359,27.72842 30.349808,27.72842 14.042431,0 29.443821,-9.93809 29.443821,-25.76535"
       style="fill:#41b3dc;fill-opacity:1;fill-rule:nonzero;stroke:#ffffff;stroke-width:8;stroke-miterlimit:4;stroke-opacity:1;stroke-dasharray:none" />
    <path
       inkscape:connector-curvature="0"
       id="path5279"
       d="m 205.90365,311.57116 -12.00402,0 c -3.05764,0 -3.85035,0.98154 -4.75633,3.92614 l -15.28813,50.79452 -15.40139,-50.79452 c -0.90598,-2.9446 -1.69869,-3.92614 -4.64307,-3.92614 l -12.57025,0 c -2.15164,0 -2.60464,1.96306 -2.03842,3.55807 l 24.34779,73.49255 c 1.35895,3.19 2.15166,3.68078 4.64305,3.68078 l 10.87158,0 c 2.49139,0 3.28414,-0.49078 4.64307,-3.68078 l 24.23454,-73.49255 c 0.56623,-1.59501 0.11332,-3.55807 -2.03842,-3.55807"
       style="fill:#41b3dc;fill-opacity:1;fill-rule:nonzero;stroke:#ffffff;stroke-width:8;stroke-miterlimit:4;stroke-opacity:1;stroke-dasharray:none" />
    <path
       id="path5255"
       style="fill:#41b3dc;fill-opacity:1;fill-rule:nonzero;stroke:none"
       d="m 81.418168,268.31079 9.253909,-27.22978 9.253883,27.22978 z m 20.235172,-46.57405 c -1.11046,-2.58744 -2.34431,-3.81956 -5.058769,-3.81956 l -11.844988,0 c -2.71448,0 -4.071703,1.23212 -5.058793,3.81956 l -27.391532,73.80383 c -0.616928,1.47853 -0.616928,3.44993 2.097547,3.44993 l 12.955446,0 c 2.714474,0 3.701561,-0.73927 4.688654,-3.69635 l 3.454793,-9.73372 30.229372,0 3.4548,9.73372 c 0.98707,2.95708 1.97415,3.69635 4.68864,3.69635 l 12.95547,0 c 2.71445,0 2.71445,-1.9714 2.09752,-3.44993 z"
       inkscape:connector-curvature="0"
       sodipodi:nodetypes="cccccssccssccccsscc" />
    <path
       style="fill:#41b3dc;fill-opacity:1;fill-rule:nonzero;stroke:none"
       d="m 203.92286,218.13641 -10.87156,0 c -3.73711,0 -4.30333,2.69923 -5.09606,4.17153 l -15.62787,30.18227 -15.51463,-30.18227 c -0.90598,-1.4723 -1.35897,-4.17153 -5.20931,-4.17153 l -11.21129,0 c -2.60466,0 -3.28413,1.34964 -3.28413,3.55809 l 0,73.73793 c 0,2.82192 1.24571,3.55807 3.28413,3.55807 l 11.21129,0 c 2.03843,0 3.28414,-0.73615 3.28414,-3.55807 l 0,-41.59262 11.43777,21.47112 c 0.56625,0.98154 1.47219,2.57652 3.17088,2.57652 l 5.66228,0 c 1.69868,0 2.71789,-1.59498 3.28412,-2.57652 l 11.32454,-21.47112 0,41.59262 c 0,2.82192 1.24571,3.55807 3.28414,3.55807 l 10.87156,0 c 2.0384,0 3.28412,-0.73615 3.28412,-3.55807 l 0,-73.73793 c 0,-2.20845 -0.67948,-3.55809 -3.28412,-3.55809"
       id="path5257"
       inkscape:connector-curvature="0" />
    <path
       style="fill:#41b3dc;fill-opacity:1;fill-rule:nonzero;stroke:none"
       d="m 119.69299,368.3776 c 0,-2.9446 -0.90596,-4.17154 -3.39735,-4.17154 l -11.09807,0 c -2.4914,0 -2.71789,1.96306 -3.05764,4.41692 -0.90596,5.88922 -5.775507,8.34306 -11.890761,8.34306 -7.474213,0 -12.57025,-4.41692 -12.57025,-12.2692 l 0,-25.51996 c 0,-7.72959 5.096037,-12.2692 12.57025,-12.2692 6.115254,0 9.286121,1.84039 11.664281,5.88924 0.90595,1.4723 1.01921,3.80343 3.39736,3.80343 l 10.87157,0 c 2.60465,0 3.51061,-0.61345 3.51061,-3.55807 -1.47218,-15.58192 -15.40139,-23.31149 -29.443821,-23.31149 -13.476218,0 -30.349808,8.46577 -30.349808,27.72841 l 0,28.95533 c 0,19.26266 16.87359,27.72842 30.349808,27.72842 14.042431,0 29.443821,-9.93809 29.443821,-25.76535"
       id="path5259"
       inkscape:connector-curvature="0" />
    <path
       style="fill:#41b3dc;fill-opacity:1;fill-rule:nonzero;stroke:none"
       d="m 205.90365,311.57116 -12.00402,0 c -3.05764,0 -3.85035,0.98154 -4.75633,3.92614 l -15.28813,50.79452 -15.40139,-50.79452 c -0.90598,-2.9446 -1.69869,-3.92614 -4.64307,-3.92614 l -12.57025,0 c -2.15164,0 -2.60464,1.96306 -2.03842,3.55807 l 24.34779,73.49255 c 1.35895,3.19 2.15166,3.68078 4.64305,3.68078 l 10.87158,0 c 2.49139,0 3.28414,-0.49078 4.64307,-3.68078 l 24.23454,-73.49255 c 0.56623,-1.59501 0.11332,-3.55807 -2.03842,-3.55807"
       id="path5261"
       inkscape:connector-curvature="0" />
  </g>
  <g
     inkscape:groupmode="layer"
     id="layer2"
     inkscape:label="Guides"
     style="opacity:0.5;display:none">
    <rect
       style="fill:none;stroke:#000000;stroke-width:0.99999994px;stroke-linecap:butt;stroke-linejoin:miter;stroke-opacity:1"
       id="rect5241"
       width="95"
       height="95"
       x="4.0857863"
       y="2.5" />
  </g>
</svg>
