<?xml version="1.0" encoding="UTF-8" standalone="no"?>
<!-- Created with Inkscape (http://www.inkscape.org/) -->

<svg
   xmlns:dc="http://purl.org/dc/elements/1.1/"
   xmlns:cc="http://creativecommons.org/ns#"
   xmlns:rdf="http://www.w3.org/1999/02/22-rdf-syntax-ns#"
   xmlns:svg="http://www.w3.org/2000/svg"
   xmlns="http://www.w3.org/2000/svg"
   xmlns:xlink="http://www.w3.org/1999/xlink"
   xmlns:sodipodi="http://sodipodi.sourceforge.net/DTD/sodipodi-0.dtd"
   xmlns:inkscape="http://www.inkscape.org/namespaces/inkscape"
   viewBox="0 0 192 192"
   preserveAspectRatio="xMinYMin meet"
   width="192"
   height="192"
   id="svg2"
   version="1.1"
   inkscape:version="0.48.5 r10040"
   sodipodi:docname="logo-monogram.svg"
   inkscape:export-filename="/home/adfries/Documents/WSAA_AMIP/aquamark/src/app/client/images/logo-monogram-fav.png"
   inkscape:export-xdpi="30"
   inkscape:export-ydpi="30">
  <defs
     id="defs4">
    <linearGradient
       id="linearGradient4003">
      <stop
         style="stop-color:#cfecfa;stop-opacity:1;"
         offset="0"
         id="stop4005" />
      <stop
         style="stop-color:#3877ae;stop-opacity:1;"
         offset="1"
         id="stop4007" />
    </linearGradient>
    <radialGradient
       inkscape:collect="always"
       xlink:href="#linearGradient4003"
       id="radialGradient4009"
       cx="-54.844479"
       cy="337.30054"
       fx="-54.844479"
       fy="337.30054"
       r="42.805244"
       gradientTransform="matrix(-0.22758124,1.5564734,-1.2107681,-0.17703361,470.66314,423.97863)"
       gradientUnits="userSpaceOnUse" />
    <radialGradient
       inkscape:collect="always"
       xlink:href="#linearGradient4003"
       id="radialGradient3019"
       gradientUnits="userSpaceOnUse"
       gradientTransform="matrix(-0.22758124,1.5564734,-1.2107681,-0.17703361,470.66314,423.97863)"
       cx="-54.844479"
       cy="337.30054"
       fx="-54.844479"
       fy="337.30054"
       r="42.805244" />
    <radialGradient
       inkscape:collect="always"
       xlink:href="#linearGradient4003"
       id="radialGradient3024"
       gradientUnits="userSpaceOnUse"
       gradientTransform="matrix(-0.32194484,2.2018449,-1.7127974,-0.25043829,672.69258,495.69639)"
       cx="-54.844479"
       cy="337.30054"
       fx="-54.844479"
       fy="337.30054"
       r="42.805244" />
  </defs>
  <sodipodi:namedview
     id="base"
     pagecolor="#ffffff"
     bordercolor="#666666"
     borderopacity="1.0"
     inkscape:pageopacity="0"
     inkscape:pageshadow="2"
     inkscape:zoom="1"
     inkscape:cx="83.099013"
     inkscape:cy="77.916187"
     inkscape:document-units="px"
     inkscape:current-layer="g5245"
     showgrid="false"
     showguides="false"
     inkscape:guide-bbox="true"
     inkscape:window-width="1920"
     inkscape:window-height="1014"
     inkscape:window-x="0"
     inkscape:window-y="27"
     inkscape:window-maximized="1"
     fit-margin-top="0"
     fit-margin-left="0"
     fit-margin-right="0"
     fit-margin-bottom="0"
     inkscape:snap-global="true"
     showborder="false">
    <inkscape:grid
       type="xygrid"
       id="grid5183"
       empspacing="5"
       visible="true"
       enabled="true"
       snapvisiblegridlinesonly="true" />
    <sodipodi:guide
       orientation="0,1"
       position="202.23254,48"
       id="guide5185" />
    <sodipodi:guide
       orientation="1,0"
       position="25,220"
       id="guide5187" />
    <sodipodi:guide
       orientation="1,0"
       position="167,261"
       id="guide5189" />
    <sodipodi:guide
       orientation="0,1"
       position="254,190"
       id="guide5191" />
  </sodipodi:namedview>
  <metadata
     id="metadata7">
    <rdf:RDF>
      <cc:Work
         rdf:about="">
        <dc:format>image/svg+xml</dc:format>
        <dc:type
           rdf:resource="http://purl.org/dc/dcmitype/StillImage" />
        <dc:title />
      </cc:Work>
    </rdf:RDF>
  </metadata>
  <g
     inkscape:label="Main"
     inkscape:groupmode="layer"
     id="Main"
     transform="translate(-33.5,-207.875)"
     style="display:inline">
    <path
       id="path4382"
       style="fill:#41b3dc;fill-opacity:1;fill-rule:nonzero;stroke:#ffffff;stroke-width:10;stroke-miterlimit:4;stroke-opacity:1;stroke-dasharray:none"
       d="m 116.23977,296.55618 14.69064,-43.28836 14.69061,43.28836 -29.38125,0 z m 75.4119,43.28837 -43.28841,-117.32915 c -1.76286,-4.11336 -3.72162,-6.07211 -8.03086,-6.07211 l -18.804,0 c -4.30925,0 -6.46386,1.95875 -8.03087,6.07211 L 70.013272,339.84455 c -0.979376,2.35049 -0.979376,5.48451 3.329873,5.48451 l 20.566866,0 c 4.309248,0 5.876256,-1.17527 7.443269,-5.87626 l 5.48451,-15.47412 47.98936,0 5.48452,15.47412 c 1.56697,4.70099 3.13398,5.87626 7.44323,5.87626 l 20.5669,0 c 4.30924,0 4.30924,-3.13402 3.32987,-5.48451"
       inkscape:connector-curvature="0" />
    <path
       style="fill:#41b3dc;fill-opacity:1;fill-rule:nonzero;stroke:#ffffff;stroke-width:10;stroke-miterlimit:4;stroke-opacity:1;stroke-dasharray:none"
       d="m 106.82646,349.37811 -6.25689,0 c -2.150811,0 -2.476691,1.43387 -2.932921,2.21598 l -8.99428,16.03329 -8.9291,-16.03329 c -0.52141,-0.78211 -0.78212,-2.21598 -2.9981,-2.21598 l -6.45241,0 c -1.49905,0 -1.89011,0.71694 -1.89011,1.89011 l 0,39.17073 c 0,1.49905 0.71694,1.89011 1.89011,1.89011 l 6.45241,0 c 1.17317,0 1.89011,-0.39106 1.89011,-1.89011 l 0,-22.09464 6.58276,11.40579 c 0.32589,0.52141 0.84729,1.36869 1.82493,1.36869 l 3.2588,0 c 0.97764,0 1.56422,-0.84728 1.8901,-1.36869 l 6.51759,-11.40579 0,22.09464 c 0,1.49905 0.71694,1.89011 1.890111,1.89011 l 6.25689,0 c 1.17316,0 1.8901,-0.39106 1.8901,-1.89011 l 0,-39.17073 c 0,-1.17317 -0.39106,-1.89011 -1.8901,-1.89011"
       id="path4380"
       inkscape:connector-curvature="0" />
    <path
       style="fill:#41b3dc;fill-opacity:1;fill-rule:nonzero;stroke:#ffffff;stroke-width:10;stroke-miterlimit:4;stroke-opacity:1;stroke-dasharray:none"
       d="m 150.956,379.61975 c 0,-1.56421 -0.52141,-2.21598 -1.95528,-2.21598 l -6.38724,0 c -1.43387,0 -1.56422,1.04281 -1.75975,2.34634 -0.52141,3.12844 -3.32397,4.43196 -6.84347,4.43196 -4.30162,0 -7.23453,-2.34634 -7.23453,-6.51759 l 0,-13.5566 c 0,-4.10608 2.93291,-6.51759 7.23453,-6.51759 3.5195,0 5.34442,0.97764 6.71312,3.12845 0.5214,0.78211 0.58658,2.02045 1.95527,2.02045 l 6.25689,0 c 1.49905,0 2.02046,-0.32588 2.02046,-1.89011 -0.84729,-8.27735 -8.86393,-12.38342 -16.94574,-12.38342 -7.75594,0 -17.46716,4.49714 -17.46716,14.72976 l 0,15.38152 c 0,10.23263 9.71122,14.72977 17.46716,14.72977 8.08181,0 16.94574,-5.27927 16.94574,-13.68696"
       id="path4378"
       inkscape:connector-curvature="0" />
    <path
       style="fill:#41b3dc;fill-opacity:1;fill-rule:nonzero;stroke:#ffffff;stroke-width:10;stroke-miterlimit:4;stroke-opacity:1;stroke-dasharray:none"
       d="m 193.32579,349.44329 -6.90865,0 c -1.75975,0 -2.21598,0.52141 -2.73739,2.08563 l -8.79875,26.98284 -8.86393,-26.98284 c -0.52141,-1.56422 -0.97764,-2.08563 -2.67221,-2.08563 l -7.23453,0 c -1.23834,0 -1.49905,1.04281 -1.17317,1.8901 l 14.01283,39.04039 c 0.78211,1.69457 1.23834,1.95529 2.67221,1.95529 l 6.25689,0 c 1.43387,0 1.89011,-0.26072 2.67222,-1.95529 l 13.94765,-39.04039 c 0.32588,-0.84729 0.0652,-1.8901 -1.17317,-1.8901"
       id="path3155"
       inkscape:connector-curvature="0" />
    <path
       inkscape:connector-curvature="0"
       d="m 116.23977,296.55618 14.69064,-43.28836 14.69061,43.28836 -29.38125,0 z m 75.4119,43.28837 -43.28841,-117.32915 c -1.76286,-4.11336 -3.72162,-6.07211 -8.03086,-6.07211 l -18.804,0 c -4.30925,0 -6.46386,1.95875 -8.03087,6.07211 L 70.013272,339.84455 c -0.979376,2.35049 -0.979376,5.48451 3.329873,5.48451 l 20.566866,0 c 4.309248,0 5.876256,-1.17527 7.443269,-5.87626 l 5.48451,-15.47412 47.98936,0 5.48452,15.47412 c 1.56697,4.70099 3.13398,5.87626 7.44323,5.87626 l 20.5669,0 c 4.30924,0 4.30924,-3.13402 3.32987,-5.48451"
       style="fill:#41b3dc;fill-opacity:1;fill-rule:nonzero;stroke:none"
       id="path5163" />
    <path
       inkscape:connector-curvature="0"
       id="path5165"
       d="m 106.82646,349.37811 -6.25689,0 c -2.150811,0 -2.476691,1.43387 -2.932921,2.21598 l -8.99428,16.03329 -8.9291,-16.03329 c -0.52141,-0.78211 -0.78212,-2.21598 -2.9981,-2.21598 l -6.45241,0 c -1.49905,0 -1.89011,0.71694 -1.89011,1.89011 l 0,39.17073 c 0,1.49905 0.71694,1.89011 1.89011,1.89011 l 6.45241,0 c 1.17317,0 1.89011,-0.39106 1.89011,-1.89011 l 0,-22.09464 6.58276,11.40579 c 0.32589,0.52141 0.84729,1.36869 1.82493,1.36869 l 3.2588,0 c 0.97764,0 1.56422,-0.84728 1.8901,-1.36869 l 6.51759,-11.40579 0,22.09464 c 0,1.49905 0.71694,1.89011 1.890111,1.89011 l 6.25689,0 c 1.17316,0 1.8901,-0.39106 1.8901,-1.89011 l 0,-39.17073 c 0,-1.17317 -0.39106,-1.89011 -1.8901,-1.89011"
       style="fill:#41b3dc;fill-opacity:1;fill-rule:nonzero;stroke:none" />
    <path
       inkscape:connector-curvature="0"
       id="path5167"
       d="m 150.956,379.61975 c 0,-1.56421 -0.52141,-2.21598 -1.95528,-2.21598 l -6.38724,0 c -1.43387,0 -1.56422,1.04281 -1.75975,2.34634 -0.52141,3.12844 -3.32397,4.43196 -6.84347,4.43196 -4.30162,0 -7.23453,-2.34634 -7.23453,-6.51759 l 0,-13.5566 c 0,-4.10608 2.93291,-6.51759 7.23453,-6.51759 3.5195,0 5.34442,0.97764 6.71312,3.12845 0.5214,0.78211 0.58658,2.02045 1.95527,2.02045 l 6.25689,0 c 1.49905,0 2.02046,-0.32588 2.02046,-1.89011 -0.84729,-8.27735 -8.86393,-12.38342 -16.94574,-12.38342 -7.75594,0 -17.46716,4.49714 -17.46716,14.72976 l 0,15.38152 c 0,10.23263 9.71122,14.72977 17.46716,14.72977 8.08181,0 16.94574,-5.27927 16.94574,-13.68696"
       style="fill:#41b3dc;fill-opacity:1;fill-rule:nonzero;stroke:none" />
    <path
       inkscape:connector-curvature="0"
       id="path5169"
       d="m 193.32579,349.44329 -6.90865,0 c -1.75975,0 -2.21598,0.52141 -2.73739,2.08563 l -8.79875,26.98284 -8.86393,-26.98284 c -0.52141,-1.56422 -0.97764,-2.08563 -2.67221,-2.08563 l -7.23453,0 c -1.23834,0 -1.49905,1.04281 -1.17317,1.8901 l 14.01283,39.04039 c 0.78211,1.69457 1.23834,1.95529 2.67221,1.95529 l 6.25689,0 c 1.43387,0 1.89011,-0.26072 2.67222,-1.95529 l 13.94765,-39.04039 c 0.32588,-0.84729 0.0652,-1.8901 -1.17317,-1.8901"
       style="fill:#41b3dc;fill-opacity:1;fill-rule:nonzero;stroke:none" />
  </g>
  <g
     transform="translate(-33.5,-207.875)"
     id="g5245"
     inkscape:groupmode="layer"
     inkscape:label="Main copy"
     style="display:none">
    <path
       id="path5255"
       style="fill:#41b3dc;fill-opacity:1;fill-rule:nonzero;stroke:none"
       d="m 98.21343,274.73197 7.66776,-22.59428 7.66774,22.59428 -15.3355,0 z m 39.36111,22.59429 -22.59431,-61.23975 c -0.92012,-2.14696 -1.94249,-3.16933 -4.19168,-3.16933 l -9.81472,0 c -2.24921,0 -3.3738,1.02237 -4.1917,3.16933 l -22.696538,61.23975 c -0.511184,1.22683 -0.511184,2.86263 1.738021,2.86263 l 10.734842,0 c 2.249205,0 3.067102,-0.61342 3.885004,-3.0671 l 2.862631,-8.07669 25.04796,0 2.86264,8.07669 c 0.81788,2.45368 1.63577,3.0671 3.88499,3.0671 l 10.73486,0 c 2.24919,0 2.24919,-1.6358 1.73801,-2.86263"
       inkscape:connector-curvature="0" />
    <path
       style="fill:#41b3dc;fill-opacity:1;fill-rule:nonzero;stroke:none"
       d="m 196.40605,233.09909 -9.00814,0 c -3.09656,0 -3.56573,2.23972 -4.22258,3.46138 l -12.94921,25.04416 -12.85537,-25.04416 c -0.75069,-1.22166 -1.12604,-3.46138 -4.31642,-3.46138 l -9.28964,0 c -2.15821,0 -2.72122,1.11988 -2.72122,2.95237 l 0,61.18507 c 0,2.34153 1.03219,2.95236 2.72122,2.95236 l 9.28964,0 c 1.68904,0 2.72123,-0.61083 2.72123,-2.95236 l 0,-34.51205 9.4773,17.81596 c 0.46919,0.81444 1.21985,2.1379 2.62738,2.1379 l 4.69175,0 c 1.40752,0 2.25203,-1.32346 2.72121,-2.1379 l 9.38348,-17.81596 0,34.51205 c 0,2.34153 1.03219,2.95236 2.72123,2.95236 l 9.00814,0 c 1.68901,0 2.72121,-0.61083 2.72121,-2.95236 l 0,-61.18507 c 0,-1.83249 -0.56302,-2.95237 -2.72121,-2.95237"
       id="path5257"
       inkscape:connector-curvature="0" />
    <path
       style="fill:#41b3dc;fill-opacity:1;fill-rule:nonzero;stroke:none"
       d="m 129.92783,357.76379 c 0,-2.44332 -0.75068,-3.46139 -2.81504,-3.46139 l -9.19582,0 c -2.06437,0 -2.25204,1.62888 -2.53355,3.665 -0.75068,4.88666 -4.78557,6.92277 -9.85265,6.92277 -6.19311,0 -10.41567,-3.665 -10.41567,-10.18054 l 0,-21.17554 c 0,-6.41373 4.22256,-10.18054 10.41567,-10.18054 5.06708,0 7.69445,1.52709 9.66499,4.88668 0.75066,1.22166 0.84451,3.15595 2.81504,3.15595 l 9.00815,0 c 2.1582,0 2.90888,-0.50902 2.90888,-2.95236 -1.21985,-12.92931 -12.76155,-19.34303 -24.39706,-19.34303 -11.166352,0 -25.147756,7.02459 -25.147756,23.00803 l 0,24.02609 c 0,15.98346 13.981404,23.00804 25.147756,23.00804 11.63551,0 24.39706,-8.24627 24.39706,-21.37916"
       id="path5259"
       inkscape:connector-curvature="0" />
    <path
       style="fill:#41b3dc;fill-opacity:1;fill-rule:nonzero;stroke:none"
       d="m 198.04732,310.62786 -9.94649,0 c -2.53355,0 -3.19039,0.81445 -3.94108,3.25777 l -12.6677,42.14746 -12.76154,-42.14746 c -0.75069,-2.44332 -1.40753,-3.25777 -3.84723,-3.25777 l -10.41567,0 c -1.78285,0 -2.1582,1.62888 -1.68903,2.95236 l 20.1745,60.98146 c 1.12602,2.64695 1.78286,3.05418 3.84722,3.05418 l 9.00815,0 c 2.06436,0 2.72123,-0.40723 3.84724,-3.05418 l 20.08066,-60.98146 c 0.46918,-1.32348 0.0939,-2.95236 -1.68903,-2.95236"
       id="path5261"
       inkscape:connector-curvature="0" />
  </g>
  <g
     inkscape:groupmode="layer"
     id="layer2"
     inkscape:label="Guides"
     style="opacity:0.5;display:none">
    <path
       id="rect5236"
       style="fill:#000000;fill-opacity:0.25742576;fill-rule:evenodd;stroke:none"
       d="m -46,-69 284,0 0,284 -284,0 z m 71,71 142,0 0,142 -142,0 z"
       inkscape:connector-curvature="0" />
    <rect
       style="fill:none;stroke:#000000;stroke-width:0.99999994px;stroke-linecap:butt;stroke-linejoin:miter;stroke-opacity:1"
       id="rect5241"
       width="141"
       height="141"
       x="25.5"
       y="2.5" />
    <path
       style="fill:#000000;fill-opacity:1;fill-rule:nonzero;stroke:none"
       id="path5243"
       d="m 6.7360178,166.24428 c 3.1226766,-3.04893 6.2076702,-6.13615 9.3041092,-9.21164 6.094264,-6.03616 12.104211,-12.15757 17.995445,-18.39207 10.428095,-11.41518 20.333923,-23.2994 30.387538,-35.04432 12.156886,-14.269033 24.893792,-28.025103 37.59401,-41.80796 10.90985,-11.970535 21.86845,-23.891678 33.10379,-35.557812 6.63984,-7.051002 13.63659,-13.741724 20.5533,-20.5145468 3.32726,-3.0716378 6.49577,-6.2995443 9.4561,-9.7259991 0.81047,-1.101447 1.69835,-2.1321776 2.64952,-3.1120542 0,0 13.89272,-5.5379859 13.89272,-5.5379859 l 0,0 c -1.21695,0.67095 -2.16636,1.785243 -2.97375,2.8867176 -2.9284,3.6232087 -6.31845,6.8526473 -9.73833,10.00354088 C 161.9154,7.1073782 154.65571,13.766152 147.88291,20.921954 136.47231,32.588755 125.37409,44.545675 114.38292,56.608035 101.68006,70.351219 88.946437,84.075253 76.828537,98.341807 66.928576,110.00527 57.146079,121.7759 46.995119,133.22103 c -5.728505,6.20055 -11.594895,12.2716 -17.546582,18.25767 -3.001156,3.02193 -6.0145,6.03199 -8.988383,9.08085 0,0 -13.7241362,5.68473 -13.7241362,5.68473 z"
       inkscape:connector-curvature="0" />
  </g>
</svg>
