<?xml version="1.0" encoding="UTF-8" standalone="no"?>
<!-- Created with Inkscape (http://www.inkscape.org/) -->

<svg
   xmlns:dc="http://purl.org/dc/elements/1.1/"
   xmlns:cc="http://creativecommons.org/ns#"
   xmlns:rdf="http://www.w3.org/1999/02/22-rdf-syntax-ns#"
   xmlns:svg="http://www.w3.org/2000/svg"
   xmlns="http://www.w3.org/2000/svg"
   xmlns:sodipodi="http://sodipodi.sourceforge.net/DTD/sodipodi-0.dtd"
   xmlns:inkscape="http://www.inkscape.org/namespaces/inkscape"
   width="178"
   height="52"
   id="svg3569"
   version="1.1"
   viewbox="0 0 178 52"
   inkscape:version="0.48.5 r10040"
   sodipodi:docname="logo.svg">
  <defs
     id="defs3571" />
  <sodipodi:namedview
     id="base"
     pagecolor="#ffffff"
     bordercolor="#666666"
     borderopacity="1.0"
     inkscape:pageopacity="0.0"
     inkscape:pageshadow="2"
     inkscape:zoom="11.313708"
     inkscape:cx="91.002875"
     inkscape:cy="19.52951"
     inkscape:document-units="px"
     inkscape:current-layer="layer1"
     showgrid="true"
     inkscape:snap-global="false"
     inkscape:window-width="1920"
     inkscape:window-height="1014"
     inkscape:window-x="0"
     inkscape:window-y="27"
     inkscape:window-maximized="1">
    <inkscape:grid
       type="xygrid"
       id="grid3624"
       empspacing="5"
       visible="true"
       enabled="true"
       snapvisiblegridlinesonly="true" />
  </sodipodi:namedview>
  <metadata
     id="metadata3574">
    <rdf:RDF>
      <cc:Work
         rdf:about="">
        <dc:format>image/svg+xml</dc:format>
        <dc:type
           rdf:resource="http://purl.org/dc/dcmitype/StillImage" />
        <dc:title></dc:title>
      </cc:Work>
    </rdf:RDF>
  </metadata>
  <g
     inkscape:label="Layer 1"
     inkscape:groupmode="layer"
     id="layer1"
     transform="translate(0,-1000.3622)">
    <path
       id="path3155"
       style="fill:#41b3dc;fill-opacity:1;fill-rule:nonzero;stroke:none"
       d="m 51.020014,1042.8402 -12.098555,-32.7919 c -0.492702,-1.1497 -1.040147,-1.697 -2.244529,-1.697 l -5.255481,0 c -1.20438,0 -1.806571,0.5473 -2.244526,1.697 l -12.153301,32.7919 c -0.273722,0.657 -0.273722,1.5328 0.930658,1.5328 l 5.748183,0 c 1.20438,0 1.642338,-0.3283 2.080294,-1.6422 l 1.532849,-4.325 13.412424,0 1.532849,4.325 c 0.437955,1.3139 0.875913,1.6422 2.080294,1.6422 l 5.748183,0 c 1.20438,0 1.20438,-0.8758 0.930658,-1.5328 m -21.076668,-12.0985 4.105845,-12.0986 4.105842,12.0986 -8.211687,0 z m 58.670232,-22.4452 -5.25548,0 c -1.806572,0 -2.080294,1.2044 -2.463506,1.8612 l -7.554754,13.4671 -7.500009,-13.4671 c -0.437957,-0.6568 -0.656935,-1.8612 -2.518251,-1.8612 l -5.419713,0 c -1.259127,0 -1.587595,0.6021 -1.587595,1.5876 l 0,32.9015 c 0,1.2591 0.602191,1.5874 1.587595,1.5874 l 5.419713,0 c 0.985402,0 1.587593,-0.3283 1.587593,-1.5874 l 0,-18.5585 5.529204,9.5803 c 0.273723,0.438 0.711681,1.1496 1.53285,1.1496 l 2.737228,0 c 0.821169,0 1.313871,-0.7116 1.587592,-1.1496 l 5.47446,-9.5803 0,18.5585 c 0,1.2591 0.60219,1.5874 1.587593,1.5874 l 5.25548,0 c 0.985404,0 1.587594,-0.3283 1.587594,-1.5874 l 0,-32.9015 c 0,-0.9855 -0.328467,-1.5876 -1.587594,-1.5876 m 37.066642,25.4014 c 0,-1.3138 -0.43796,-1.8613 -1.64233,-1.8613 l -5.36497,0 c -1.20439,0 -1.31387,0.8761 -1.4781,1.9708 -0.43797,2.6279 -2.79197,3.7226 -5.74818,3.7226 -3.61315,0 -6.07665,-1.9708 -6.07665,-5.4744 l 0,-11.3869 c 0,-3.4489 2.4635,-5.4744 6.07665,-5.4744 2.95621,0 4.48904,0.8212 5.63868,2.6276 0.43797,0.657 0.49271,1.6973 1.64235,1.6973 l 5.25549,0 c 1.2591,0 1.69706,-0.2738 1.69706,-1.5877 -0.71168,-6.9526 -7.44526,-10.4015 -14.23358,-10.4015 -6.51462,0 -14.671557,3.7774 -14.671557,12.3724 l 0,12.9195 c 0,8.595 8.156937,12.3724 14.671557,12.3724 6.78832,0 14.23358,-4.4344 14.23358,-11.4964 m 35.58856,-25.3466 -5.80295,0 c -1.4781,0 -1.86131,0.4378 -2.29926,1.7518 l -7.39053,22.6642 -7.44525,-22.6642 c -0.43796,-1.314 -0.82118,-1.7518 -2.24454,-1.7518 l -6.07665,0 c -1.04014,0 -1.25911,0.8758 -0.98539,1.5874 l 11.77008,32.7921 c 0.65693,1.4233 1.04014,1.6422 2.24454,1.6422 l 5.25546,0 c 1.2044,0 1.58761,-0.2189 2.24455,-1.6422 l 11.71533,-32.7921 c 0.27373,-0.7116 0.0548,-1.5874 -0.98539,-1.5874"
       inkscape:connector-curvature="0" />
  </g>
</svg>
